<svg width="11" height="21" viewBox="0 0 11 21" fill="none" xmlns="http://www.w3.org/2000/svg">
<path d="M2.188 10.228L10.68 1.736C10.8667 1.54933 10.9667 1.32 10.98 1.048C10.9933 0.775999 10.8933 0.533333 10.68 0.32C10.4667 0.106666 10.2307 0 9.972 0C9.71333 0 9.47733 0.106666 9.264 0.32L0.487999 9.098C0.313333 9.27133 0.190665 9.44933 0.119999 9.632C0.0493326 9.81467 0.0139999 10.0133 0.0139999 10.228C0.0139999 10.4427 0.0493326 10.6413 0.119999 10.824C0.190665 11.0067 0.313333 11.1853 0.487999 11.36L9.264 20.136C9.45067 20.3227 9.68 20.4227 9.952 20.436C10.224 20.4493 10.4667 20.3493 10.68 20.136C10.8933 19.9227 11 19.6867 11 19.428C11 19.1693 10.8933 18.9333 10.68 18.72L2.188 10.228Z" fill="#1636FF"/>
</svg>
