<svg width="11" height="21" viewBox="0 0 11 21" fill="none" xmlns="http://www.w3.org/2000/svg">
<path d="M8.812 10.228L0.32 1.736C0.133333 1.54933 0.0333338 1.32 0.0200005 1.048C0.00666712 0.775999 0.106666 0.533333 0.32 0.32C0.533333 0.106666 0.769333 0 1.028 0C1.28667 0 1.52267 0.106666 1.736 0.32L10.512 9.098C10.6867 9.27133 10.8093 9.44933 10.88 9.632C10.9507 9.81467 10.986 10.0133 10.986 10.228C10.986 10.4427 10.9507 10.6413 10.88 10.824C10.8093 11.0067 10.6867 11.1853 10.512 11.36L1.736 20.136C1.54933 20.3227 1.32 20.4227 1.048 20.436C0.776 20.4493 0.533333 20.3493 0.32 20.136C0.106666 19.9227 0 19.6867 0 19.428C0 19.1693 0.106666 18.9333 0.32 18.72L8.812 10.228Z" fill="white"/>
</svg>
