<svg width="20" height="20" viewBox="0 0 20 20" fill="none" xmlns="http://www.w3.org/2000/svg">
<path d="M17.4008 0.866785C17.5145 0.753043 17.6496 0.662817 17.7982 0.60126C17.9468 0.539703 18.1061 0.508021 18.2669 0.508021C18.4278 0.508021 18.5871 0.539703 18.7357 0.60126C18.8843 0.662817 19.0193 0.753043 19.1331 0.866785C19.2468 0.980527 19.337 1.11556 19.3986 1.26417C19.4601 1.41278 19.4918 1.57206 19.4918 1.73292C19.4918 1.89377 19.4601 2.05305 19.3986 2.20167C19.337 2.35028 19.2468 2.48531 19.1331 2.59905L11.7347 9.99959L19.1331 17.4001L19.2909 17.5921C19.4452 17.8279 19.5137 18.1096 19.4847 18.3899C19.4558 18.6702 19.3312 18.932 19.1319 19.1313C18.9327 19.3305 18.6709 19.4551 18.3906 19.484C18.1103 19.513 17.8286 19.4446 17.5928 19.2903L17.4008 19.1324L10.0003 11.7319L2.59972 19.1345C2.48584 19.2483 2.35067 19.3385 2.20192 19.4C2.05318 19.4615 1.89379 19.4931 1.73283 19.493C1.57188 19.4929 1.41252 19.4611 1.26385 19.3994C1.11519 19.3377 0.980127 19.2473 0.866385 19.1335C0.752643 19.0196 0.662445 18.8844 0.600942 18.7357C0.539439 18.5869 0.507834 18.4275 0.507933 18.2666C0.508033 18.1056 0.539833 17.9463 0.601519 17.7976C0.663205 17.6489 0.75357 17.5139 0.867452 17.4001L8.26799 9.99959L0.865318 2.59905L0.709585 2.40705C0.554058 2.1713 0.484645 1.88911 0.513064 1.60812C0.541483 1.32712 0.665995 1.06454 0.865576 0.864712C1.06516 0.66488 1.32758 0.540039 1.60854 0.511267C1.8895 0.482495 2.17178 0.551554 2.40772 0.706785L2.59972 0.866785L10.0003 8.26518L17.4008 0.866785Z" fill="white"/>
</svg>
