<svg width="35" height="24" viewBox="0 0 35 24" fill="none" xmlns="http://www.w3.org/2000/svg">
<path opacity="0.8" d="M27.3131 24C24.3692 24 22.2157 23 20.8528 21C20.2531 20.1892 19.7625 19.1081 19.3808 17.7568C18.9992 16.4054 18.8084 14.9189 18.8084 13.2973C18.8084 10.4865 19.5444 7.89189 21.0164 5.51351C22.4883 3.13513 24.6417 1.2973 27.4766 0L28.2126 1.45946C26.7952 2.10811 25.514 3.05405 24.3692 4.2973C23.2788 5.48649 22.5156 6.75676 22.0794 8.10811C21.8069 8.86486 21.6706 9.75675 21.6706 10.7838C21.6706 11.5946 21.7251 12.1892 21.8341 12.5676C23.2516 10.8919 25.2414 10.0541 27.8037 10.0541C29.9844 10.0541 31.729 10.6757 33.0374 11.9189C34.3458 13.1081 35 14.8108 35 17.027C35 19.1351 34.2913 20.8378 32.8738 22.1351C31.4564 23.3784 29.6028 24 27.3131 24ZM8.50467 24C5.56075 24 3.40732 23 2.04439 21C1.4447 20.1892 0.95405 19.1081 0.57243 17.7568C0.19081 16.4054 0 14.9189 0 13.2973C0 10.4865 0.735981 7.89189 2.20794 5.51351C3.67991 3.13513 5.83333 1.2973 8.66822 0L9.40421 1.45946C7.98676 2.10811 6.70561 3.05405 5.56075 4.2973C4.4704 5.48649 3.70716 6.75676 3.27103 8.10811C2.99844 8.86486 2.86215 9.75675 2.86215 10.7838C2.86215 11.5946 2.91667 12.1892 3.0257 12.5676C4.44315 10.8919 6.43302 10.0541 8.99533 10.0541C11.176 10.0541 12.9206 10.6757 14.229 11.9189C15.5374 13.1081 16.1916 14.8108 16.1916 17.027C16.1916 19.1351 15.4829 20.8378 14.0654 22.1351C12.648 23.3784 10.7944 24 8.50467 24Z" fill="#4960F4"/>
</svg>
