<svg width="257" height="372" viewBox="0 0 257 372" fill="none" xmlns="http://www.w3.org/2000/svg">
<path d="M256.98 31.6703V258.953L255.379 260.375L214.635 296.018V159.287L214.397 159.423L149.317 193.995L148.803 194.268L148.249 194.56L147.894 194.755V354.373L127.729 372L107.209 354.061V216.239L40.7246 251.376V295.902L8.995 268.146L0.0395385 260.375L0 260.336V31.8262C0 14.238 9.74623 0 21.7857 0H126.167C138.147 0 147.874 14.1991 147.874 31.6898V39.8509H148.23V132.213L147.874 132.408L107.169 154.047V39.8509H40.7048V206.188L107.228 171.051L148.249 149.373L214.397 114.43V97.0172L214.635 96.8809V0H235.333C247.313 0 257 14.1796 257 31.6703H256.98Z" fill="url(#paint0_linear_2295_840)" fill-opacity="0.12"/>
<defs>
<linearGradient id="paint0_linear_2295_840" x1="202.157" y1="-82.6001" x2="-12.0552" y2="325.768" gradientUnits="userSpaceOnUse">
<stop offset="0.101434" stop-color="white" stop-opacity="0.8"/>
<stop offset="0.762489" stop-color="white" stop-opacity="0"/>
</linearGradient>
</defs>
</svg>
