<svg width="106" height="32" viewBox="0 0 106 32" fill="none" xmlns="http://www.w3.org/2000/svg">
<path d="M43.9263 18H41.3049L39.732 13.9734H34.51L33.0839 18H30.5673L35.9361 4.15864H38.0123L43.9263 18ZM35.1811 12.086H38.977L36.9847 6.98983L35.1811 12.086ZM50.5519 10.4502C50.4121 10.3383 50.1954 10.2474 49.9018 10.1775C49.6082 10.1076 49.3566 10.0727 49.1468 10.0727C48.8672 10.0727 48.6365 10.1426 48.4548 10.2824C48.273 10.4082 48.1122 10.583 47.9724 10.8067C47.8326 11.0164 47.7138 11.2611 47.6159 11.5407C47.518 11.8203 47.4271 12.1069 47.3433 12.4005V18H45.0364V8.35299H46.8399L46.9448 10.3663H47.0287C47.1685 10.0727 47.3153 9.78606 47.4691 9.50644C47.6229 9.22682 47.7977 8.98215 47.9934 8.77243C48.1891 8.54873 48.4128 8.37397 48.6645 8.24813C48.9301 8.10832 49.2377 8.03842 49.5872 8.03842C50.1465 8.03842 50.6708 8.22017 51.1601 8.58368L50.5519 10.4502ZM58.5451 18L58.3774 16.6788H58.2935C57.916 17.1541 57.3987 17.5386 56.7416 17.8322C56.0984 18.1118 55.4413 18.2517 54.7702 18.2517C53.8894 18.2517 53.1973 18 52.694 17.4967C52.1907 16.9794 51.939 16.3013 51.939 15.4624C51.939 14.8892 52.0579 14.3789 52.2955 13.9315C52.5472 13.4701 52.9037 13.0856 53.3651 12.778C53.8265 12.4565 54.3787 12.2118 55.0219 12.044C55.665 11.8762 56.385 11.7924 57.182 11.7924H58.0837V11.4778C58.0837 10.9325 57.909 10.5341 57.5595 10.2824C57.1959 10.0307 56.6297 9.9049 55.8607 9.9049C54.8261 9.9049 53.9034 10.1356 53.0925 10.597L52.6521 8.85632C53.5888 8.31105 54.7213 8.03842 56.0495 8.03842C57.4476 8.03842 58.5102 8.32503 59.2372 8.89826C59.5727 9.1639 59.8454 9.50644 60.0551 9.92587C60.2788 10.3453 60.3906 10.8486 60.3906 11.4358V18H58.5451ZM55.672 16.3852C56.1194 16.3852 56.5668 16.2803 57.0142 16.0706C57.4616 15.8469 57.8181 15.5533 58.0837 15.1898V13.2814H57.6853C56.5388 13.2814 55.7 13.4282 55.1687 13.7218C54.6514 14.0154 54.3927 14.4837 54.3927 15.1269C54.3927 15.9657 54.8191 16.3852 55.672 16.3852ZM65.5073 18H63.2004V2.4809H65.5073V18ZM80.1641 18H77.7523V11.9182H71.1252V18H68.7135V4.15864H71.1252V9.82102H77.7523V4.15864H80.1641V18ZM85.4452 8.35299V14.6235C85.4452 15.1968 85.592 15.6372 85.8856 15.9448C86.1932 16.2384 86.5846 16.3852 87.06 16.3852C87.5493 16.3852 87.9967 16.2244 88.4022 15.9028C88.8076 15.5673 89.1082 15.0919 89.304 14.4767V8.35299H91.6318V18H89.8283L89.7024 16.6578H89.6185C89.4648 16.9794 89.269 17.245 89.0313 17.4547C88.7937 17.6505 88.528 17.8113 88.2344 17.9371C87.9548 18.0489 87.6612 18.1258 87.3536 18.1678C87.046 18.2237 86.7454 18.2517 86.4518 18.2517C85.9904 18.2517 85.557 18.1957 85.1516 18.0839C84.7601 17.972 84.4106 17.7903 84.103 17.5386C83.8094 17.273 83.5717 16.9304 83.3899 16.511C83.2222 16.0776 83.1383 15.5463 83.1383 14.9172V8.35299H85.4452ZM99.7282 18.2517C98.9733 18.2517 98.3441 18.0979 97.8408 17.7903C97.3514 17.4827 96.911 17.1122 96.5196 16.6788H96.4357L96.2679 18H94.4224V2.4809H96.7083V9.31769C97.0299 8.91224 97.4563 8.59766 97.9876 8.37397C98.5189 8.15027 99.1201 8.03842 99.7912 8.03842C100.518 8.03842 101.154 8.17823 101.7 8.45785C102.245 8.73748 102.699 9.10798 103.063 9.56936C103.426 10.0307 103.692 10.569 103.86 11.1842C104.041 11.7854 104.132 12.4145 104.132 13.0716C104.132 13.8126 104.027 14.4977 103.818 15.1269C103.608 15.756 103.307 16.3013 102.916 16.7627C102.538 17.224 102.077 17.5876 101.532 17.8532C100.987 18.1188 100.385 18.2517 99.7282 18.2517ZM99.4346 16.511C99.8401 16.511 100.19 16.4131 100.483 16.2174C100.791 16.0217 101.042 15.77 101.238 15.4624C101.448 15.1409 101.602 14.7773 101.7 14.3719C101.797 13.9525 101.846 13.533 101.846 13.1136C101.846 12.6802 101.79 12.2677 101.679 11.8762C101.581 11.4708 101.42 11.1143 101.196 10.8067C100.987 10.4991 100.714 10.2614 100.378 10.0936C100.057 9.91189 99.6793 9.82102 99.2459 9.82102C98.8404 9.82102 98.421 9.91888 97.9876 10.1146C97.5542 10.2964 97.1277 10.6459 96.7083 11.1632V15.1898C96.8621 15.3995 97.0508 15.5882 97.2745 15.756C97.4982 15.9098 97.7289 16.0426 97.9666 16.1545C98.2183 16.2663 98.4699 16.3572 98.7216 16.4271C98.9733 16.483 99.2109 16.511 99.4346 16.511Z" fill="white"/>
<path d="M33.259 28.6556C32.9191 28.6556 32.6081 28.5869 32.3261 28.4495C32.044 28.3121 31.8018 28.1241 31.5993 27.8854C31.404 27.6468 31.2522 27.3647 31.1437 27.0393C31.0352 26.7139 30.981 26.3595 30.981 25.9763C30.981 25.6364 31.0244 25.311 31.1112 25C31.2052 24.6818 31.3462 24.4034 31.5342 24.1647C31.7222 23.9261 31.9536 23.7345 32.2284 23.5898C32.5105 23.4452 32.8431 23.3729 33.2264 23.3729C33.5735 23.3729 33.8845 23.4307 34.1593 23.5464C34.4341 23.6621 34.6547 23.8249 34.821 24.0346V20.4983H36.0034V28.5254H35.0488L34.962 27.842H34.9186C34.7161 28.0662 34.4847 28.2579 34.2244 28.4169C33.9713 28.576 33.6495 28.6556 33.259 28.6556ZM33.4108 27.7553C33.5265 27.7553 33.6495 27.7408 33.7796 27.7119C33.9098 27.6757 34.0364 27.6287 34.1593 27.5708C34.2895 27.513 34.4124 27.4443 34.5281 27.3647C34.6438 27.278 34.7414 27.1803 34.821 27.0719V24.9891C34.604 24.7216 34.3835 24.5408 34.1593 24.4468C33.9351 24.3455 33.7182 24.2949 33.5084 24.2949C33.277 24.2949 33.0782 24.3419 32.9118 24.4359C32.7455 24.5227 32.6045 24.6456 32.4888 24.8047C32.3803 24.9638 32.2971 25.1482 32.2393 25.358C32.1887 25.5604 32.1634 25.7738 32.1634 25.998C32.1634 26.2149 32.1887 26.4319 32.2393 26.6488C32.2899 26.8585 32.3658 27.0466 32.4671 27.2129C32.5683 27.372 32.6985 27.5021 32.8576 27.6034C33.0167 27.7046 33.2011 27.7553 33.4108 27.7553ZM38.3705 28.5254H37.1773V23.5356H38.3705V28.5254ZM37.0037 21.9302C37.0037 21.8289 37.0218 21.7313 37.0579 21.6373C37.1013 21.5433 37.1592 21.4601 37.2315 21.3878C37.3038 21.3082 37.3834 21.2468 37.4701 21.2034C37.5641 21.16 37.6654 21.1383 37.7739 21.1383C37.8751 21.1383 37.9727 21.16 38.0667 21.2034C38.1608 21.2468 38.2439 21.3082 38.3162 21.3878C38.3958 21.4601 38.4573 21.5433 38.5006 21.6373C38.544 21.7313 38.5657 21.8289 38.5657 21.9302C38.5657 22.0386 38.544 22.1399 38.5006 22.2339C38.4573 22.3207 38.3958 22.4002 38.3162 22.4725C38.2439 22.5449 38.1608 22.6027 38.0667 22.6461C37.9727 22.6823 37.8751 22.7003 37.7739 22.7003C37.5641 22.7003 37.3834 22.6244 37.2315 22.4725C37.0796 22.3207 37.0037 22.1399 37.0037 21.9302ZM40.2042 26.9525C39.8788 26.8151 39.6438 26.6018 39.4991 26.3125C39.3545 26.0233 39.2822 25.7087 39.2822 25.3688C39.2822 25.0868 39.3292 24.8228 39.4232 24.5769C39.5172 24.3311 39.651 24.1214 39.8245 23.9478C40.0053 23.767 40.2187 23.626 40.4645 23.5247C40.7177 23.4235 41.0033 23.3729 41.3215 23.3729C41.5095 23.3729 41.6939 23.391 41.8747 23.4271C42.0627 23.4633 42.2254 23.5175 42.3628 23.5898C42.6666 23.5826 42.9414 23.5609 43.1873 23.5247C43.4404 23.4814 43.6826 23.4271 43.914 23.362L44.0117 23.438L43.8923 24.2624L43.8381 24.3166L43.0679 24.2298L43.0571 24.2624C43.303 24.5733 43.4259 24.9385 43.4259 25.358C43.4259 25.6111 43.3789 25.8497 43.2849 26.0739C43.1981 26.2908 43.0679 26.4825 42.8944 26.6488C42.7208 26.8079 42.5039 26.9381 42.2435 27.0393C41.9904 27.1333 41.7012 27.1803 41.3757 27.1803C41.2962 27.1803 41.2311 27.1803 41.1805 27.1803C41.1371 27.1731 41.0937 27.1695 41.0503 27.1695C40.9274 27.2129 40.8334 27.2707 40.7683 27.343C40.7032 27.4081 40.6706 27.4768 40.6706 27.5491C40.6706 27.6287 40.7104 27.6974 40.79 27.7553C40.8695 27.8131 40.9925 27.8529 41.1588 27.8746L42.211 28.0047C42.4496 28.0337 42.6702 28.0843 42.8727 28.1566C43.0824 28.2289 43.2632 28.3266 43.4151 28.4495C43.5741 28.5724 43.6971 28.7207 43.7839 28.8942C43.8706 29.0678 43.914 29.2667 43.914 29.4908C43.914 29.715 43.867 29.932 43.773 30.1417C43.679 30.3514 43.5308 30.5358 43.3283 30.6949C43.1258 30.854 42.8691 30.9806 42.5581 31.0746C42.2544 31.1686 41.8856 31.2156 41.4517 31.2156C41.0684 31.2156 40.7285 31.1758 40.432 31.0963C40.1427 31.024 39.8969 30.9227 39.6944 30.7925C39.4919 30.6624 39.3364 30.5069 39.2279 30.3261C39.1267 30.1525 39.0761 29.9645 39.0761 29.762C39.0761 29.6174 39.1014 29.4728 39.152 29.3281C39.2026 29.1907 39.2713 29.0606 39.3581 28.9376C39.4521 28.8219 39.557 28.7171 39.6727 28.623C39.7956 28.529 39.9258 28.4603 40.0632 28.4169V28.3736C39.8969 28.3012 39.7812 28.2036 39.7161 28.0807C39.651 27.9577 39.6184 27.8384 39.6184 27.7227C39.6184 27.5708 39.6691 27.4298 39.7703 27.2997C39.8715 27.1695 40.0162 27.0682 40.2042 26.9959V26.9525ZM41.3649 26.3451C41.6614 26.3451 41.8856 26.2511 42.0374 26.063C42.1893 25.8678 42.2652 25.6328 42.2652 25.358C42.2652 25.2278 42.2471 25.0976 42.211 24.9675C42.1748 24.8301 42.117 24.7071 42.0374 24.5986C41.9579 24.4902 41.8566 24.4034 41.7337 24.3383C41.618 24.266 41.4806 24.2298 41.3215 24.2298C41.1696 24.2298 41.0358 24.2624 40.9201 24.3275C40.8044 24.3853 40.7068 24.4649 40.6273 24.5661C40.5549 24.6673 40.5007 24.783 40.4645 24.9132C40.4284 25.0362 40.4103 25.1627 40.4103 25.2929C40.4103 25.423 40.4284 25.5532 40.4645 25.6834C40.5079 25.8063 40.5694 25.9184 40.649 26.0197C40.7285 26.1137 40.8261 26.1932 40.9418 26.2583C41.0648 26.3162 41.2058 26.3451 41.3649 26.3451ZM41.0286 28.7641C40.7827 28.8075 40.573 28.9087 40.3995 29.0678C40.2259 29.2341 40.1391 29.4221 40.1391 29.6319C40.1391 29.8633 40.2512 30.0368 40.4754 30.1525C40.7068 30.2682 41.0395 30.3261 41.4734 30.3261C41.9 30.3261 42.2399 30.2646 42.493 30.1417C42.7461 30.026 42.8727 29.8343 42.8727 29.5668C42.8727 29.3064 42.7317 29.122 42.4496 29.0136C42.1676 28.9051 41.6939 28.8219 41.0286 28.7641ZM45.8128 28.5254H44.6196V23.5356H45.8128V28.5254ZM44.4461 21.9302C44.4461 21.8289 44.4641 21.7313 44.5003 21.6373C44.5437 21.5433 44.6015 21.4601 44.6739 21.3878C44.7462 21.3082 44.8257 21.2468 44.9125 21.2034C45.0065 21.16 45.1078 21.1383 45.2162 21.1383C45.3175 21.1383 45.4151 21.16 45.5091 21.2034C45.6031 21.2468 45.6863 21.3082 45.7586 21.3878C45.8382 21.4601 45.8996 21.5433 45.943 21.6373C45.9864 21.7313 46.0081 21.8289 46.0081 21.9302C46.0081 22.0386 45.9864 22.1399 45.943 22.2339C45.8996 22.3207 45.8382 22.4002 45.7586 22.4725C45.6863 22.5449 45.6031 22.6027 45.5091 22.6461C45.4151 22.6823 45.3175 22.7003 45.2162 22.7003C45.0065 22.7003 44.8257 22.6244 44.6739 22.4725C44.522 22.3207 44.4461 22.1399 44.4461 21.9302ZM47.2127 24.2624H46.5944V23.6115L47.2995 23.503L47.4947 22.0278H48.4059V23.5356H49.3605V24.2624H48.4059V27.1261C48.4059 27.343 48.4276 27.4913 48.471 27.5708C48.5144 27.6432 48.5975 27.6793 48.7205 27.6793C48.8145 27.6793 48.9085 27.6612 49.0025 27.6251C49.0965 27.5889 49.2339 27.5202 49.4147 27.419L49.61 28.2759C49.4726 28.3916 49.2773 28.482 49.0242 28.5471C48.7783 28.6194 48.5325 28.6556 48.2866 28.6556C48.0696 28.6556 47.8888 28.6267 47.7442 28.5688C47.6068 28.511 47.4983 28.4278 47.4188 28.3193C47.3392 28.2036 47.285 28.0662 47.2561 27.9071C47.2271 27.748 47.2127 27.5708 47.2127 27.3756V24.2624ZM53.2984 28.5254L53.2117 27.842H53.1683C52.973 28.0879 52.7054 28.2868 52.3656 28.4386C52.0329 28.5833 51.693 28.6556 51.3459 28.6556C50.8903 28.6556 50.5323 28.5254 50.272 28.2651C50.0117 27.9975 49.8815 27.6468 49.8815 27.2129C49.8815 26.9164 49.943 26.6524 50.0659 26.421C50.1961 26.1824 50.3805 25.9835 50.6191 25.8244C50.8578 25.6581 51.1434 25.5315 51.4761 25.4447C51.8087 25.358 52.1812 25.3146 52.5934 25.3146H53.0598V25.1519C53.0598 24.8698 52.9694 24.6637 52.7886 24.5336C52.6006 24.4034 52.3077 24.3383 51.91 24.3383C51.3748 24.3383 50.8975 24.4576 50.4781 24.6963L50.2503 23.7959C50.7348 23.5139 51.3206 23.3729 52.0076 23.3729C52.7308 23.3729 53.2804 23.5211 53.6564 23.8176C53.83 23.955 53.971 24.1322 54.0795 24.3491C54.1952 24.5661 54.253 24.8264 54.253 25.1302V28.5254H53.2984ZM51.8123 27.6902C52.0438 27.6902 52.2752 27.6359 52.5066 27.5275C52.738 27.4117 52.9224 27.2599 53.0598 27.0719V26.0847H52.8537C52.2607 26.0847 51.8268 26.1607 51.552 26.3125C51.2844 26.4644 51.1506 26.7067 51.1506 27.0393C51.1506 27.4732 51.3712 27.6902 51.8123 27.6902ZM56.6284 28.5254H55.4351V20.4983H56.6284V28.5254ZM64.0467 24.7722C63.9672 24.7143 63.866 24.6565 63.743 24.5986C63.6273 24.5408 63.5008 24.4902 63.3634 24.4468C63.226 24.4034 63.0813 24.3708 62.9295 24.3491C62.7848 24.3202 62.6474 24.3058 62.5173 24.3058C62.2714 24.3058 62.0617 24.3528 61.8881 24.4468C61.7218 24.5336 61.5844 24.6529 61.4759 24.8047C61.3747 24.9494 61.2987 25.1193 61.2481 25.3146C61.2047 25.5098 61.183 25.7123 61.183 25.922C61.183 26.1679 61.2119 26.3993 61.2698 26.6163C61.3277 26.826 61.4144 27.0104 61.5301 27.1695C61.6458 27.3286 61.7905 27.4551 61.964 27.5491C62.1448 27.6432 62.3509 27.6902 62.5823 27.6902C62.8427 27.6902 63.1175 27.6395 63.4067 27.5383C63.7032 27.4298 63.9491 27.2816 64.1444 27.0936L64.3613 28.1132C64.1588 28.2434 63.8804 28.3663 63.5261 28.482C63.179 28.5977 62.8065 28.6556 62.4088 28.6556C61.9893 28.6556 61.6205 28.5833 61.3023 28.4386C60.9914 28.294 60.731 28.1024 60.5213 27.8637C60.3188 27.6179 60.1634 27.3358 60.0549 27.0176C59.9536 26.6922 59.903 26.3487 59.903 25.9871C59.903 25.64 59.95 25.311 60.044 25C60.1453 24.6818 60.3008 24.4034 60.5105 24.1647C60.7202 23.9189 60.9878 23.7272 61.3132 23.5898C61.6386 23.4452 62.0291 23.3729 62.4847 23.3729C62.8318 23.3729 63.1717 23.4127 63.5044 23.4922C63.837 23.5717 64.1046 23.6766 64.3071 23.8068L64.0467 24.7722ZM67.3273 23.3729C67.7684 23.3729 68.148 23.4488 68.4662 23.6007C68.7844 23.7453 69.0448 23.9442 69.2473 24.1973C69.457 24.4432 69.6088 24.7288 69.7029 25.0542C69.8041 25.3724 69.8547 25.7087 69.8547 26.063C69.8547 26.4174 69.8041 26.7537 69.7029 27.0719C69.6088 27.3828 69.457 27.6576 69.2473 27.8963C69.0448 28.1277 68.7844 28.3121 68.4662 28.4495C68.1553 28.5869 67.7865 28.6556 67.3598 28.6556C66.9187 28.6556 66.539 28.5833 66.2208 28.4386C65.9026 28.294 65.6387 28.1024 65.429 27.8637C65.2192 27.6179 65.0638 27.3358 64.9625 27.0176C64.8613 26.6994 64.8106 26.3632 64.8106 26.0088C64.8106 25.6545 64.8613 25.3182 64.9625 25C65.0638 24.6818 65.2156 24.4034 65.4181 24.1647C65.6278 23.9189 65.8918 23.7272 66.21 23.5898C66.5282 23.4452 66.9006 23.3729 67.3273 23.3729ZM67.349 27.7553C67.5587 27.7553 67.7395 27.7119 67.8913 27.6251C68.0504 27.5311 68.1806 27.4081 68.2818 27.2563C68.3831 27.0972 68.4554 26.9164 68.4988 26.7139C68.5494 26.5114 68.5747 26.2981 68.5747 26.0739C68.5747 25.8425 68.5494 25.6219 68.4988 25.4122C68.4482 25.1953 68.3686 25.0072 68.2601 24.8481C68.1589 24.6818 68.0287 24.5516 67.8696 24.4576C67.7105 24.3564 67.5189 24.3058 67.2947 24.3058C67.085 24.3058 66.9042 24.3528 66.7523 24.4468C66.6005 24.5336 66.4739 24.6529 66.3727 24.8047C66.2787 24.9566 66.2064 25.1338 66.1557 25.3363C66.1123 25.5388 66.0906 25.7521 66.0906 25.9763C66.0906 26.2077 66.1123 26.4319 66.1557 26.6488C66.2064 26.8585 66.2823 27.0466 66.3835 27.2129C66.492 27.3792 66.6258 27.513 66.7849 27.6142C66.944 27.7082 67.132 27.7553 67.349 27.7553ZM73.964 28.5254V25.2278C73.964 24.6348 73.729 24.3383 73.259 24.3383C73.1432 24.3383 73.0167 24.36 72.8793 24.4034C72.7491 24.4468 72.619 24.5119 72.4888 24.5986C72.3658 24.6782 72.2501 24.7794 72.1417 24.9024C72.0404 25.0253 71.9681 25.1663 71.9247 25.3254V28.5254H70.7315V23.5356H71.6644L71.7186 24.2732H71.762C71.9066 23.9695 72.1344 23.7453 72.4454 23.6007C72.7636 23.4488 73.0999 23.3729 73.4542 23.3729C73.7941 23.3729 74.1014 23.4416 74.3762 23.579C74.6583 23.7091 74.868 23.9369 75.0054 24.2624C75.15 23.9659 75.3778 23.7453 75.6888 23.6007C75.9997 23.4488 76.3324 23.3729 76.6868 23.3729C76.9182 23.3729 77.1351 23.4054 77.3376 23.4705C77.5473 23.5284 77.7281 23.626 77.88 23.7634C78.0391 23.9008 78.162 24.0816 78.2488 24.3058C78.3428 24.5299 78.3898 24.8047 78.3898 25.1302V28.5254H77.1966V25.2278C77.1966 24.6348 76.9616 24.3383 76.4915 24.3383C76.3758 24.3383 76.2492 24.36 76.1118 24.4034C75.9817 24.4468 75.8515 24.5119 75.7213 24.5986C75.5984 24.6782 75.4827 24.7794 75.3742 24.9024C75.273 25.0253 75.2006 25.1663 75.1573 25.3254V28.5254H73.964ZM82.2402 23.3729C82.6307 23.3729 82.967 23.4488 83.249 23.6007C83.5311 23.7453 83.7625 23.9406 83.9433 24.1864C84.1313 24.4323 84.2687 24.718 84.3555 25.0434C84.4423 25.3616 84.4856 25.6942 84.4856 26.0414C84.4856 26.3957 84.4386 26.732 84.3446 27.0502C84.2578 27.3684 84.1204 27.6468 83.9324 27.8854C83.7444 28.1241 83.5094 28.3121 83.2273 28.4495C82.9453 28.5869 82.609 28.6556 82.2185 28.6556C81.8931 28.6556 81.5894 28.6086 81.3073 28.5146C81.0325 28.4206 80.812 28.2687 80.6456 28.059V31.3458H79.4633V23.5356H80.4178L80.5046 24.219H80.548C80.642 24.1033 80.7541 23.9948 80.8843 23.8936C81.0145 23.7851 81.1555 23.6947 81.3073 23.6224C81.4592 23.5428 81.6147 23.4814 81.7738 23.438C81.9329 23.3946 82.0884 23.3729 82.2402 23.3729ZM82.045 24.2841C81.9365 24.2841 81.8172 24.3021 81.687 24.3383C81.5568 24.3672 81.4267 24.4142 81.2965 24.4793C81.1736 24.5372 81.0542 24.6095 80.9385 24.6963C80.8228 24.783 80.7252 24.8807 80.6456 24.9891V27.1044C80.8626 27.372 81.0832 27.5419 81.3073 27.6142C81.5388 27.6793 81.7485 27.7119 81.9365 27.7119C82.1751 27.7119 82.3776 27.6685 82.544 27.5817C82.7175 27.4949 82.8585 27.3792 82.967 27.2346C83.0827 27.0827 83.1659 26.9091 83.2165 26.7139C83.2743 26.5114 83.3033 26.2945 83.3033 26.063C83.3033 25.8461 83.278 25.6328 83.2273 25.423C83.184 25.2061 83.108 25.0145 82.9995 24.8481C82.8983 24.6818 82.7681 24.548 82.609 24.4468C82.4499 24.3383 82.2619 24.2841 82.045 24.2841ZM88.4145 28.5254L88.3278 27.842H88.2844C88.0891 28.0879 87.8215 28.2868 87.4817 28.4386C87.149 28.5833 86.8091 28.6556 86.462 28.6556C86.0064 28.6556 85.6484 28.5254 85.3881 28.2651C85.1278 27.9975 84.9976 27.6468 84.9976 27.2129C84.9976 26.9164 85.0591 26.6524 85.182 26.421C85.3122 26.1824 85.4966 25.9835 85.7352 25.8244C85.9739 25.6581 86.2595 25.5315 86.5922 25.4447C86.9248 25.358 87.2973 25.3146 87.7095 25.3146H88.1759V25.1519C88.1759 24.8698 88.0855 24.6637 87.9047 24.5336C87.7167 24.4034 87.4238 24.3383 87.0261 24.3383C86.4909 24.3383 86.0136 24.4576 85.5942 24.6963L85.3664 23.7959C85.8509 23.5139 86.4367 23.3729 87.1237 23.3729C87.8469 23.3729 88.3965 23.5211 88.7725 23.8176C88.9461 23.955 89.0871 24.1322 89.1956 24.3491C89.3113 24.5661 89.3691 24.8264 89.3691 25.1302V28.5254H88.4145ZM86.9284 27.6902C87.1599 27.6902 87.3913 27.6359 87.6227 27.5275C87.8541 27.4117 88.0385 27.2599 88.1759 27.0719V26.0847H87.9698C87.3768 26.0847 86.9429 26.1607 86.6681 26.3125C86.4005 26.4644 86.2667 26.7067 86.2667 27.0393C86.2667 27.4732 86.4873 27.6902 86.9284 27.6902ZM93.8272 28.5254V25.2278C93.8272 24.6348 93.5741 24.3383 93.0679 24.3383C92.9449 24.3383 92.8111 24.36 92.6665 24.4034C92.5291 24.4468 92.3953 24.5119 92.2651 24.5986C92.135 24.6782 92.0156 24.7794 91.9072 24.9024C91.8059 25.0253 91.73 25.1663 91.6794 25.3254V28.5254H90.4862V23.5356H91.419L91.4733 24.2732H91.5167C91.6685 23.9695 91.9036 23.7453 92.2218 23.6007C92.5472 23.4488 92.8943 23.3729 93.2631 23.3729C93.5018 23.3729 93.7259 23.4054 93.9356 23.4705C94.1454 23.5284 94.3298 23.626 94.4889 23.7634C94.6552 23.9008 94.7854 24.0816 94.8794 24.3058C94.9734 24.5299 95.0204 24.8047 95.0204 25.1302V28.5254H93.8272ZM98.1986 27.0827L99.5871 23.5356H100.737L98.6759 28.5688C98.5747 28.8219 98.4336 29.104 98.2529 29.4149C98.0793 29.7331 97.8696 30.0296 97.6237 30.3044C97.3851 30.5864 97.1139 30.8215 96.8101 31.0095C96.5064 31.2047 96.1774 31.3024 95.823 31.3024C95.7652 31.3024 95.7218 31.2988 95.6929 31.2915C95.6639 31.2915 95.6314 31.2843 95.5952 31.2698L95.3891 30.3369C95.4108 30.3442 95.4361 30.3514 95.4651 30.3586C95.494 30.3659 95.5555 30.3695 95.6495 30.3695C95.7869 30.3695 95.9206 30.355 96.0508 30.3261C96.1882 30.2972 96.3256 30.2393 96.463 30.1525C96.7234 29.9862 96.9475 29.7548 97.1356 29.4583C97.3308 29.1618 97.5188 28.7966 97.6996 28.3627L95.2156 23.5356H96.463L98.1986 27.0827Z" fill="white"/>
<path d="M21.8179 3.05513V22.3854L21.682 22.5063L18.2227 25.5378V13.9088L18.2026 13.9204L12.6772 16.8608L12.6335 16.884L12.5866 16.9088L12.5563 16.9254V30.5008L10.8443 32L9.10213 30.4743V18.7526L3.45757 21.741V25.5279L0.763686 23.1673L0.00335686 22.5063L0 22.503V3.06838C0 1.57252 0.827466 0.361582 1.84963 0.361582H10.7117C11.7289 0.361582 12.5547 1.56921 12.5547 3.05679V3.75088H12.5849V11.6062L12.5547 11.6228L9.09877 13.4632V3.75088H3.45589V17.8978L9.10381 14.9094L12.5866 13.0657L18.2026 10.0938V8.61285L18.2227 8.60125V0.361582H19.98C20.9972 0.361582 21.8196 1.56755 21.8196 3.05513H21.8179Z" fill="white"/>
</svg>
