<svg width="49" height="71" viewBox="0 0 49 71" fill="none" xmlns="http://www.w3.org/2000/svg">
<path opacity="0.4" d="M0.408648 70.7729V61.6366L24.6473 37.8752C26.9655 35.5343 28.8973 33.4548 30.4427 31.6366C31.9882 29.8184 33.1473 28.057 33.92 26.3525C34.6927 24.6479 35.0791 22.8298 35.0791 20.8979C35.0791 18.6934 34.5791 16.807 33.5791 15.2389C32.5791 13.6479 31.2041 12.4207 29.4541 11.557C27.7041 10.6934 25.7155 10.2616 23.4882 10.2616C21.1927 10.2616 19.1814 10.7389 17.4541 11.6934C15.7268 12.6252 14.3859 13.9548 13.4314 15.682C12.4996 17.4093 12.0336 19.4661 12.0336 21.8525H-0.000443697C-0.000443697 17.4207 1.01092 13.5684 3.03365 10.2957C5.05637 7.02295 7.84047 4.48886 11.3859 2.6934C14.9541 0.897947 19.045 0.000219345 23.6586 0.000219345C28.3405 0.000219345 32.4541 0.875219 35.9996 2.62522C39.545 4.37522 42.295 6.77295 44.2496 9.8184C46.2268 12.8639 47.2155 16.3411 47.2155 20.2502C47.2155 22.8639 46.7155 25.432 45.7155 27.9548C44.7155 30.4775 42.9541 33.2729 40.4314 36.3411C37.9314 39.4093 34.42 43.1252 29.8973 47.4889L17.8632 59.7275V60.2048H48.2723V70.7729H0.408648Z" fill="#4960F4"/>
</svg>
