<svg width="52" height="72" viewBox="0 0 52 72" fill="none" xmlns="http://www.w3.org/2000/svg">
<path opacity="0.4" d="M25.6022 71.727C20.6931 71.727 16.3295 70.8861 12.5113 69.2043C8.71582 67.5225 5.71582 65.1816 3.51128 62.1816C1.30673 59.1816 0.136275 55.7156 -8.84533e-05 51.7838H12.8181C12.9317 53.6702 13.5567 55.3179 14.6931 56.727C15.8295 58.1134 17.3408 59.1929 19.2272 59.9656C21.1135 60.7384 23.2272 61.1247 25.5681 61.1247C28.0681 61.1247 30.284 60.6929 32.2158 59.8293C34.1476 58.9429 35.659 57.7156 36.7499 56.1475C37.8408 54.5793 38.3749 52.7725 38.3522 50.727C38.3749 48.6134 37.8295 46.7497 36.7158 45.1361C35.6022 43.5225 33.9885 42.2611 31.8749 41.352C29.784 40.4429 27.2613 39.9884 24.3067 39.9884H18.1363V30.2384H24.3067C26.7385 30.2384 28.8635 29.8179 30.6817 28.977C32.5226 28.1361 33.9658 26.9543 35.0113 25.4316C36.0567 23.8861 36.5681 22.102 36.5454 20.0793C36.5681 18.102 36.1249 16.3861 35.2158 14.9316C34.3295 13.4543 33.0681 12.3065 31.4317 11.4884C29.8181 10.6702 27.9204 10.2611 25.7385 10.2611C23.6022 10.2611 21.6249 10.6475 19.8067 11.4202C17.9885 12.1929 16.5226 13.2952 15.409 14.727C14.2954 16.1361 13.7045 17.8179 13.6363 19.7725H1.46582C1.55673 15.8634 2.68173 12.4316 4.84082 9.47701C7.02264 6.49973 9.93173 4.18155 13.5681 2.52246C17.2045 0.840641 21.284 -0.000268936 25.8067 -0.000268936C30.4658 -0.000268936 34.5113 0.874731 37.9431 2.62473C41.3976 4.352 44.0681 6.68155 45.9545 9.61337C47.8408 12.5452 48.784 15.7838 48.784 19.3293C48.8067 23.2611 47.6476 26.5566 45.3067 29.2156C42.9885 31.8747 39.9431 33.6134 36.1704 34.4316V34.977C41.0795 35.6588 44.8408 37.477 47.4545 40.4316C50.0908 43.3634 51.3976 47.0111 51.3749 51.3747C51.3749 55.2838 50.2613 58.7838 48.034 61.8747C45.8295 64.9429 42.784 67.352 38.8976 69.102C35.034 70.852 30.6022 71.727 25.6022 71.727Z" fill="#4960F4"/>
</svg>
