<svg width="50" height="71" viewBox="0 0 50 71" fill="none" xmlns="http://www.w3.org/2000/svg">
<path opacity="0.4" d="M24.1023 70.7729C19.5568 70.7729 15.4886 69.9206 11.8977 68.2161C8.30682 66.4888 5.45455 64.1252 3.34091 61.1252C1.25 58.1252 0.136364 54.6934 0 50.8297H12.2727C12.5 53.6934 13.7386 56.0343 15.9886 57.8524C18.2386 59.6479 20.9432 60.5456 24.1023 60.5456C26.5795 60.5456 28.7841 59.9774 30.7159 58.8411C32.6477 57.7047 34.1705 56.1252 35.2841 54.1024C36.3977 52.0797 36.9432 49.7729 36.9205 47.182C36.9432 44.5456 36.3864 42.2047 35.25 40.1593C34.1136 38.1138 32.5568 36.5115 30.5795 35.3524C28.6023 34.1706 26.3295 33.5797 23.7614 33.5797C21.6705 33.557 19.6136 33.9434 17.5909 34.7388C15.5682 35.5343 13.9659 36.5797 12.7841 37.8752L1.36364 36.0002L5.01136 0.000175476H45.5114V10.5684H15.4773L13.4659 29.0797H13.875C15.1705 27.557 17 26.2956 19.3636 25.2956C21.7273 24.2729 24.3182 23.7615 27.1364 23.7615C31.3636 23.7615 35.1364 24.7615 38.4545 26.7615C41.7727 28.7388 44.3864 31.4661 46.2955 34.9434C48.2045 38.4206 49.1591 42.3979 49.1591 46.8752C49.1591 51.4888 48.0909 55.6024 45.9545 59.2161C43.8409 62.807 40.8977 65.6365 37.125 67.7047C33.375 69.7502 29.0341 70.7729 24.1023 70.7729Z" fill="#4960F4"/>
</svg>
