<svg width="52" height="72" viewBox="0 0 52 72" fill="none" xmlns="http://www.w3.org/2000/svg">
<path opacity="0.4" d="M26.6936 71.727C23.3527 71.7043 20.0914 71.1247 16.9095 69.9884C13.7277 68.8293 10.8641 66.9543 8.31863 64.3634C5.77317 61.7497 3.75044 58.2838 2.25044 53.9656C0.750444 49.6247 0.0118077 44.2497 0.0345349 37.8406C0.0345349 31.8634 0.670899 26.5338 1.94363 21.852C3.21635 17.1702 5.0459 13.2156 7.43226 9.98837C9.81863 6.73837 12.6936 4.2611 16.0573 2.55655C19.4436 0.852003 23.2277 -0.000268936 27.4095 -0.000268936C31.7959 -0.000268936 35.6823 0.863367 39.0686 2.59064C42.4777 4.31791 45.2277 6.68155 47.3186 9.68155C49.4095 12.6588 50.705 16.0225 51.205 19.7725H38.7618C38.1254 17.0906 36.8186 14.9543 34.8414 13.3634C32.8868 11.7497 30.4095 10.9429 27.4095 10.9429C22.5686 10.9429 18.8414 13.0452 16.2277 17.2497C13.6368 21.4543 12.33 27.227 12.3073 34.5679H12.7845C13.8982 32.5679 15.3414 30.852 17.1141 29.4202C18.8868 27.9884 20.8868 26.8861 23.1141 26.1134C25.3641 25.3179 27.7391 24.9202 30.2391 24.9202C34.33 24.9202 38.0004 25.8975 41.2504 27.852C44.5232 29.8066 47.1141 32.4997 49.0232 35.9316C50.9323 39.3406 51.8754 43.2497 51.8527 47.6588C51.8754 52.2497 50.83 56.3747 48.7164 60.0338C46.6027 63.6702 43.6595 66.5338 39.8868 68.6247C36.1141 70.7156 31.7164 71.7497 26.6936 71.727ZM26.6254 61.4997C29.1027 61.4997 31.3186 60.8975 33.2732 59.6929C35.2277 58.4884 36.7732 56.8634 37.9095 54.8179C39.0459 52.7725 39.6027 50.477 39.58 47.9316C39.6027 45.4316 39.0573 43.1702 37.9436 41.1475C36.8527 39.1247 35.3414 37.5225 33.4095 36.3406C31.4777 35.1588 29.2732 34.5679 26.7959 34.5679C24.955 34.5679 23.2391 34.9202 21.6482 35.6247C20.0573 36.3293 18.6709 37.3066 17.4891 38.5566C16.3073 39.7838 15.3754 41.2156 14.6936 42.852C14.0345 44.4656 13.6936 46.1929 13.6709 48.0338C13.6936 50.4656 14.2618 52.7043 15.3754 54.7497C16.4891 56.7952 18.0232 58.4316 19.9777 59.6588C21.9323 60.8861 24.1482 61.4997 26.6254 61.4997Z" fill="#4960F4"/>
</svg>
