<svg width="42" height="39" viewBox="0 0 42 39" fill="none" xmlns="http://www.w3.org/2000/svg">
<path d="M41.67 35.376L38.5635 33.261C38.3146 33.0912 38.0203 33.0002 37.719 33H35.562C33.327 35.6536 30.4715 37.7146 27.249 39H37.719C38.0202 39.0002 38.3144 38.9098 38.5635 38.7405L41.67 36.624C41.7718 36.5548 41.8551 36.4618 41.9127 36.353C41.9703 36.2443 42.0004 36.1231 42.0004 36C42.0004 35.8769 41.9703 35.7557 41.9127 35.647C41.8551 35.5382 41.7718 35.4452 41.67 35.376ZM3 20.763L6.069 18.132C6.7365 11.538 12.171 6.348 18.861 6.033L16.6815 3.489C16.5647 3.35342 16.5005 3.18043 16.5005 3.0015C16.5005 2.82257 16.5647 2.64958 16.6815 2.514L18.804 0C8.7795 0.354 0.6345 8.295 0 18.246L3 20.763Z" fill="url(#paint0_linear_2295_328)"/>
<path d="M18.2385 3L20.868 6.069C27.462 6.7365 32.652 12.1725 32.967 18.8625L35.5125 16.6815C35.6481 16.5647 35.8211 16.5005 36 16.5005C36.1789 16.5005 36.3519 16.5647 36.4875 16.6815L39 18.804C38.646 8.7795 30.705 0.6345 20.7555 0L18.2385 3ZM2.5125 22.32L0.03 20.19C0.18 24.45 1.692 28.3575 4.1505 31.4985H13.344C11.2353 30.4118 9.45022 28.7885 8.1688 26.792C6.88737 24.7956 6.15483 22.4967 6.045 20.127L3.4875 22.317C3.35192 22.4338 3.17893 22.498 3 22.498C2.82107 22.498 2.64808 22.4338 2.5125 22.317V22.32ZM20.7615 36L18.1905 33H1.5C1.10218 33 0.720644 33.158 0.43934 33.4393C0.158035 33.7206 0 34.1022 0 34.5V37.5C0 37.8978 0.158035 38.2794 0.43934 38.5607C0.720644 38.842 1.10218 39 1.5 39H18.192L20.7615 36Z" fill="url(#paint1_linear_2295_328)"/>
<path d="M36 18.2385L32.931 20.868C32.2635 27.462 26.8275 32.652 20.1375 32.967L22.3185 35.5125C22.4353 35.6481 22.4995 35.8211 22.4995 36C22.4995 36.1789 22.4353 36.3519 22.3185 36.4875L20.196 39C30.2205 38.6445 38.301 30.705 38.937 20.7555L36 18.2385ZM19.5 10.5C17.1131 10.5 14.8239 11.4482 13.136 13.136C11.4482 14.8239 10.5 17.1131 10.5 19.5C10.5 21.8869 11.4482 24.1761 13.136 25.864C14.8239 27.5518 17.1131 28.5 19.5 28.5C21.8869 28.5 24.1761 27.5518 25.864 25.864C27.5518 24.1761 28.5 21.8869 28.5 19.5C28.5 17.1131 27.5518 14.8239 25.864 13.136C24.1761 11.4482 21.8869 10.5 19.5 10.5ZM23.8935 16.1355L19.3935 23.6355C19.335 23.7335 19.2549 23.8168 19.1593 23.8792C19.0636 23.9415 18.9551 23.9812 18.8418 23.9952C18.7285 24.0093 18.6136 23.9973 18.5056 23.9601C18.3977 23.923 18.2997 23.8617 18.219 23.781L15.219 20.781C15.1493 20.7113 15.094 20.6285 15.0562 20.5374C15.0185 20.4463 14.9991 20.3486 14.9991 20.25C14.9991 20.1514 15.0185 20.0537 15.0562 19.9626C15.094 19.8715 15.1493 19.7887 15.219 19.719C15.2887 19.6493 15.3715 19.594 15.4626 19.5562C15.5537 19.5185 15.6514 19.4991 15.75 19.4991C15.8486 19.4991 15.9463 19.5185 16.0374 19.5562C16.1285 19.594 16.2113 19.6493 16.281 19.719L18.6015 22.041L22.6065 15.3645C22.7087 15.1938 22.8746 15.0708 23.0676 15.0224C23.2605 14.974 23.4648 15.0043 23.6355 15.1065C23.8062 15.2087 23.9292 15.3746 23.9776 15.5676C24.026 15.7605 23.9957 15.9648 23.8935 16.1355Z" fill="url(#paint2_linear_2295_328)"/>
<defs>
<linearGradient id="paint0_linear_2295_328" x1="21.0002" y1="0" x2="21.0002" y2="39" gradientUnits="userSpaceOnUse">
<stop stop-color="#5B85FF"/>
<stop offset="1" stop-color="#3F6FFA"/>
</linearGradient>
<linearGradient id="paint1_linear_2295_328" x1="21.0002" y1="0" x2="21.0002" y2="39" gradientUnits="userSpaceOnUse">
<stop stop-color="#5B85FF"/>
<stop offset="1" stop-color="#3F6FFA"/>
</linearGradient>
<linearGradient id="paint2_linear_2295_328" x1="21.0002" y1="0" x2="21.0002" y2="39" gradientUnits="userSpaceOnUse">
<stop stop-color="#5B85FF"/>
<stop offset="1" stop-color="#3F6FFA"/>
</linearGradient>
</defs>
</svg>
