<svg width="128" height="64" viewBox="0 0 128 64" fill="none" xmlns="http://www.w3.org/2000/svg">
<path opacity="0.4" d="M2.66699 48C3.06699 43.2444 4.52299 38.8666 7.03499 34.8666C9.54699 30.8666 12.891 27.6888 17.067 25.3333L12.1337 16.8C11.867 16.4 11.8003 15.9777 11.9337 15.5333C12.067 15.0888 12.3559 14.7555 12.8003 14.5333C13.1559 14.3111 13.5559 14.2666 14.0003 14.4C14.4448 14.5333 14.8003 14.8 15.067 15.2L20.0003 23.7333C23.8225 22.1333 27.8225 21.3333 32.0003 21.3333C36.1781 21.3333 40.1781 22.1333 44.0003 23.7333L48.9337 15.2C49.2003 14.8 49.5559 14.5333 50.0003 14.4C50.4448 14.2666 50.8448 14.3111 51.2003 14.5333C51.6448 14.7555 51.9337 15.0888 52.067 15.5333C52.2003 15.9777 52.1337 16.4 51.867 16.8L46.9337 25.3333C51.1114 27.6888 54.4554 30.8666 56.9657 34.8666C59.4759 38.8666 60.9319 43.2444 61.3337 48H2.66699ZM18.667 40.6666C19.6003 40.6666 20.3897 40.344 21.035 39.6986C21.6803 39.0533 22.0021 38.2648 22.0003 37.3333C21.9985 36.4017 21.6759 35.6124 21.0323 34.9653C20.3888 34.3182 19.6003 33.9964 18.667 34C17.7337 34.0035 16.9443 34.3262 16.299 34.968C15.6537 35.6097 15.3319 36.3982 15.3337 37.3333C15.3354 38.2684 15.6581 39.0577 16.3017 39.7013C16.9452 40.3448 17.7337 40.6666 18.667 40.6666ZM45.3337 40.6666C46.267 40.6666 47.0563 40.344 47.7017 39.6986C48.347 39.0533 48.6688 38.2648 48.667 37.3333C48.6652 36.4017 48.3425 35.6124 47.699 34.9653C47.0554 34.3182 46.267 33.9964 45.3337 34C44.4003 34.0035 43.611 34.3262 42.9657 34.968C42.3203 35.6097 41.9986 36.3982 42.0003 37.3333C42.0021 38.2684 42.3248 39.0577 42.9683 39.7013C43.6119 40.3448 44.4003 40.6666 45.3337 40.6666Z" fill="#1636FF"/>
<path opacity="0.4" d="M109.466 54.08C106.853 56.6133 104 56.2133 101.253 55.0133C98.3465 53.7867 95.6798 53.7333 92.6131 55.0133C88.7731 56.6667 86.7465 56.1867 84.4531 54.08C71.4398 40.6667 73.3598 20.24 88.1331 19.4933C91.7331 19.68 94.2398 21.4667 96.3465 21.6267C99.4931 20.9867 102.506 19.1467 105.866 19.3867C109.893 19.7067 112.933 21.3067 114.933 24.1867C106.613 29.1733 108.586 40.1333 116.213 43.2C114.693 47.2 112.72 51.1733 109.44 54.1067L109.466 54.08ZM96.0798 19.3333C95.6798 13.3867 100.506 8.48 106.053 8C106.826 14.88 99.8131 20 96.0798 19.3333Z" fill="#1636FF"/>
</svg>
