<svg width="64" height="64" viewBox="0 0 64 64" fill="none" xmlns="http://www.w3.org/2000/svg">
<g clip-path="url(#clip0_2295_790)">
<path opacity="0.4" d="M53.1733 44.8533L50.6667 22.6133C50.5379 21.538 50.0239 20.5457 49.2199 19.8201C48.4159 19.0945 47.3762 18.6848 46.2933 18.6667H42C41.8232 18.6667 41.6536 18.5964 41.5286 18.4714C41.4036 18.3464 41.3333 18.1768 41.3333 18V15.3333C41.4197 12.7701 40.4854 10.2774 38.7354 8.40248C36.9855 6.52757 34.5631 5.42373 32 5.33333C29.4369 5.42373 27.0145 6.52757 25.2646 8.40248C23.5146 10.2774 22.5803 12.7701 22.6667 15.3333V18C22.6667 18.1768 22.5964 18.3464 22.4714 18.4714C22.3464 18.5964 22.1768 18.6667 22 18.6667H17.7067C16.6238 18.6848 15.5841 19.0945 14.7801 19.8201C13.9761 20.5457 13.4621 21.538 13.3333 22.6133L10.9333 44.8533C10.7905 45.8255 10.7014 46.8047 10.6667 47.7867C10.6948 49.6304 11.4506 51.3882 12.7693 52.677C14.0881 53.9658 15.8628 54.681 17.7067 54.6667H46.2933C48.1372 54.681 49.9119 53.9658 51.2307 52.677C52.5494 51.3882 53.3052 49.6304 53.3333 47.7867C53.3339 46.8067 53.2805 45.8274 53.1733 44.8533ZM28 46.4533C27.4696 46.4533 26.9609 46.2426 26.5858 45.8675C26.2107 45.4925 26 44.9838 26 44.4533C26 43.9229 26.2107 43.4142 26.5858 43.0391C26.9609 42.664 27.4696 42.4533 28 42.4533H33.3333C33.7506 42.4533 34.1508 42.2876 34.4459 41.9925C34.7409 41.6975 34.9067 41.2973 34.9067 40.88C34.9118 40.564 34.8199 40.254 34.6435 39.9918C34.4671 39.7296 34.2146 39.5277 33.92 39.4133L28.5067 37.3333C27.3801 36.8955 26.4264 36.1033 25.7893 35.0762C25.1522 34.0491 24.8663 32.8427 24.9746 31.6389C25.0829 30.4351 25.5797 29.2992 26.3899 28.4023C27.2002 27.5055 28.28 26.8963 29.4667 26.6667C29.6172 26.631 29.7515 26.546 29.8481 26.4252C29.9448 26.3044 29.9982 26.1547 30 26V25.12C30 24.5896 30.2107 24.0809 30.5858 23.7058C30.9609 23.3307 31.4696 23.12 32 23.12C32.5304 23.12 33.0391 23.3307 33.4142 23.7058C33.7893 24.0809 34 24.5896 34 25.12V25.7867C34 25.9635 34.0702 26.133 34.1953 26.2581C34.3203 26.3831 34.4899 26.4533 34.6667 26.4533H36C36.5304 26.4533 37.0391 26.664 37.4142 27.0391C37.7893 27.4142 38 27.9229 38 28.4533C38 28.9838 37.7893 29.4925 37.4142 29.8675C37.0391 30.2426 36.5304 30.4533 36 30.4533H30.6667C30.2981 30.4492 29.9399 30.5746 29.6544 30.8077C29.3688 31.0407 29.1742 31.3666 29.1044 31.7284C29.0345 32.0903 29.0939 32.4652 29.2722 32.7878C29.4505 33.1103 29.7364 33.36 30.08 33.4933L35.5733 35.68C36.6999 36.1178 37.6536 36.91 38.2907 37.9371C38.9278 38.9642 39.2137 40.1706 39.1054 41.3744C38.9971 42.5782 38.5003 43.7142 37.6901 44.611C36.8798 45.5079 35.8 46.117 34.6133 46.3467C34.4628 46.3824 34.3285 46.4674 34.2319 46.5882C34.1352 46.709 34.0818 46.8586 34.08 47.0133V47.8133C34.08 48.3438 33.8693 48.8525 33.4942 49.2276C33.1191 49.6026 32.6104 49.8133 32.08 49.8133C31.5496 49.8133 31.0409 49.6026 30.6658 49.2276C30.2907 48.8525 30.08 48.3438 30.08 47.8133V47.1467C30.08 46.9699 30.0098 46.8003 29.8847 46.6753C29.7597 46.5502 29.5901 46.48 29.4133 46.48L28 46.4533ZM28 15.3333C27.9189 14.1857 28.2932 13.0523 29.042 12.1788C29.7907 11.3053 30.8535 10.762 32 10.6667C33.1465 10.762 34.2093 11.3053 34.958 12.1788C35.7068 13.0523 36.0811 14.1857 36 15.3333V18C36 18.1768 35.9298 18.3464 35.8047 18.4714C35.6797 18.5964 35.5101 18.6667 35.3333 18.6667H28.6667C28.4899 18.6667 28.3203 18.5964 28.1953 18.4714C28.0702 18.3464 28 18.1768 28 18V15.3333ZM2.66667 10.6667C3.37391 10.6667 4.05219 10.3857 4.55229 9.88562C5.05238 9.38552 5.33333 8.70724 5.33333 8V6C5.33333 5.82319 5.40357 5.65362 5.5286 5.5286C5.65362 5.40357 5.82319 5.33333 6 5.33333H8C8.70724 5.33333 9.38552 5.05238 9.88562 4.55229C10.3857 4.05219 10.6667 3.37391 10.6667 2.66667C10.6667 1.95942 10.3857 1.28115 9.88562 0.781049C9.38552 0.280952 8.70724 0 8 0H5.33333C3.91885 0 2.56229 0.561903 1.5621 1.5621C0.561903 2.56229 0 3.91885 0 5.33333V8C0 8.70724 0.280952 9.38552 0.781049 9.88562C1.28115 10.3857 1.95942 10.6667 2.66667 10.6667ZM8 58.6667H6C5.82319 58.6667 5.65362 58.5964 5.5286 58.4714C5.40357 58.3464 5.33333 58.1768 5.33333 58V56C5.33333 55.2928 5.05238 54.6145 4.55229 54.1144C4.05219 53.6143 3.37391 53.3333 2.66667 53.3333C1.95942 53.3333 1.28115 53.6143 0.781049 54.1144C0.280952 54.6145 0 55.2928 0 56V58.6667C0 60.0812 0.561903 61.4377 1.5621 62.4379C2.56229 63.4381 3.91885 64 5.33333 64H8C8.70724 64 9.38552 63.7191 9.88562 63.219C10.3857 62.7189 10.6667 62.0406 10.6667 61.3333C10.6667 60.6261 10.3857 59.9478 9.88562 59.4477C9.38552 58.9476 8.70724 58.6667 8 58.6667ZM58.6667 0H56C55.2928 0 54.6145 0.280952 54.1144 0.781049C53.6143 1.28115 53.3333 1.95942 53.3333 2.66667C53.3333 3.37391 53.6143 4.05219 54.1144 4.55229C54.6145 5.05238 55.2928 5.33333 56 5.33333H58C58.1768 5.33333 58.3464 5.40357 58.4714 5.5286C58.5964 5.65362 58.6667 5.82319 58.6667 6V8C58.6667 8.70724 58.9476 9.38552 59.4477 9.88562C59.9478 10.3857 60.6261 10.6667 61.3333 10.6667C62.0406 10.6667 62.7189 10.3857 63.219 9.88562C63.7191 9.38552 64 8.70724 64 8V5.33333C64 3.91885 63.4381 2.56229 62.4379 1.5621C61.4377 0.561903 60.0812 0 58.6667 0ZM61.3333 53.3333C60.6261 53.3333 59.9478 53.6143 59.4477 54.1144C58.9476 54.6145 58.6667 55.2928 58.6667 56V58C58.6667 58.1768 58.5964 58.3464 58.4714 58.4714C58.3464 58.5964 58.1768 58.6667 58 58.6667H56C55.2928 58.6667 54.6145 58.9476 54.1144 59.4477C53.6143 59.9478 53.3333 60.6261 53.3333 61.3333C53.3333 62.0406 53.6143 62.7189 54.1144 63.219C54.6145 63.7191 55.2928 64 56 64H58.6667C60.0812 64 61.4377 63.4381 62.4379 62.4379C63.4381 61.4377 64 60.0812 64 58.6667V56C64 55.2928 63.7191 54.6145 63.219 54.1144C62.7189 53.6143 62.0406 53.3333 61.3333 53.3333Z" fill="#1636FF"/>
</g>
<defs>
<clipPath id="clip0_2295_790">
<rect width="64" height="64" fill="white"/>
</clipPath>
</defs>
</svg>
