<svg width="64" height="1188" viewBox="0 0 64 1188" fill="none" xmlns="http://www.w3.org/2000/svg">
<path d="M34.0001 2.79753e-06L34 1116L30 1116L30.0001 2.62268e-06L34.0001 2.79753e-06Z" fill="url(#paint0_linear_2295_222)"/>
<path d="M37.0745 1177.43C35.7945 1176.17 35.0631 1174.39 35.0631 1172.58L35.0631 1168.7L34.9945 1168.63C33.6688 1169.02 32.2517 1169.25 30.7888 1169.25C22.8803 1169.25 16.4345 1162.8 16.4345 1154.87C16.4406 1151.07 17.9548 1147.42 20.6455 1144.73C23.3361 1142.04 26.9837 1140.52 30.7888 1140.52C38.7203 1140.52 45.166 1146.96 45.166 1154.87C45.166 1156.24 44.9831 1157.59 44.5945 1158.85L44.7088 1158.96L48.6631 1158.96C50.5145 1158.96 52.2288 1159.67 53.5088 1160.97L55.6803 1163.14C56.5773 1160.49 57.0329 1157.7 57.0288 1154.89C57.0288 1140.42 45.2574 1128.65 30.8117 1128.65C16.3431 1128.65 4.57168 1140.42 4.57168 1154.89C4.57168 1169.36 16.3431 1181.11 30.8117 1181.11C33.7374 1181.11 36.5945 1180.63 39.3145 1179.67L37.0745 1177.43Z" fill="url(#paint1_linear_2295_222)"/>
<path d="M51.1545 1183.21C51.5659 1183.06 51.9242 1182.79 52.1874 1182.44C52.4506 1182.08 52.6077 1181.66 52.6403 1181.22L52.9603 1176.88L57.3031 1176.56C57.7417 1176.53 58.1618 1176.37 58.5141 1176.11C58.8664 1175.85 59.1361 1175.49 59.2917 1175.08C59.5888 1174.25 59.3831 1173.29 58.766 1172.68L50.286 1164.2C50.0732 1163.98 49.82 1163.82 49.5413 1163.7C49.2627 1163.59 48.9641 1163.53 48.6631 1163.53L42.8345 1163.53L37.1568 1157.93C37.6247 1156.98 37.8709 1155.93 37.8768 1154.87C37.8768 1150.98 34.6997 1147.81 30.814 1147.81C28.9387 1147.81 27.1399 1148.55 25.8117 1149.87C24.4835 1151.2 23.7343 1153 23.7283 1154.87C23.7283 1158.78 26.9054 1161.96 30.814 1161.96C31.9047 1161.95 32.9782 1161.68 33.9477 1161.18L39.6368 1166.78L39.6368 1172.58C39.6368 1173.18 39.8654 1173.77 40.2997 1174.21L48.7568 1182.66C49.0628 1182.98 49.4514 1183.19 49.8767 1183.29C50.3019 1183.39 50.7439 1183.36 51.1545 1183.21Z" fill="url(#paint2_linear_2295_222)"/>
<defs>
<linearGradient id="paint0_linear_2295_222" x1="30.0007" y1="1116" x2="30.0008" y2="-400.002" gradientUnits="userSpaceOnUse">
<stop stop-color="white"/>
<stop offset="1" stop-color="white" stop-opacity="0"/>
</linearGradient>
<linearGradient id="paint1_linear_2295_222" x1="32" y1="1183" x2="32" y2="1129" gradientUnits="userSpaceOnUse">
<stop stop-color="white"/>
<stop offset="1" stop-color="white" stop-opacity="0.7"/>
</linearGradient>
<linearGradient id="paint2_linear_2295_222" x1="32" y1="1183" x2="32" y2="1129" gradientUnits="userSpaceOnUse">
<stop stop-color="white"/>
<stop offset="1" stop-color="white" stop-opacity="0.7"/>
</linearGradient>
</defs>
</svg>
