<svg width="44" height="43" viewBox="0 0 44 43" fill="none" xmlns="http://www.w3.org/2000/svg">
<path d="M43 37.5C43 38.96 42.42 40.36 41.38 41.38C40.3 42.46 38.9 42.98 37.5 42.98C36.1 42.98 34.68 42.44 33.62 41.38L31.02 38.78C34.22 36.86 36.88 34.2 38.8 31L41.4 33.6C42.44 34.64 43.02 36.02 43.02 37.48L43 37.5ZM39 19.5C39 30.26 30.26 39 19.5 39C8.74 39 0 30.26 0 19.5C0 8.74 8.74 0 19.5 0C30.26 0 39 8.74 39 19.5ZM12.28 19.5L16.22 15.56C16.8 14.98 16.8 14.02 16.22 13.44C15.64 12.86 14.68 12.86 14.1 13.44L9.1 18.44C8.52 19.02 8.52 19.98 9.1 20.56L14.1 25.56C14.4 25.86 14.78 26 15.16 26C15.54 26 15.92 25.86 16.22 25.56C16.8 24.98 16.8 24.02 16.22 23.44L12.28 19.5ZM29.88 18.44L24.88 13.44C24.3 12.86 23.34 12.86 22.76 13.44C22.18 14.02 22.18 14.98 22.76 15.56L26.7 19.5L22.76 23.44C22.18 24.02 22.18 24.98 22.76 25.56C23.06 25.86 23.44 26 23.82 26C24.2 26 24.58 25.86 24.88 25.56L29.88 20.56C30.46 19.98 30.46 19.02 29.88 18.44Z" fill="url(#paint0_linear_2295_321)"/>
<defs>
<linearGradient id="paint0_linear_2295_321" x1="21.51" y1="0" x2="21.51" y2="42.98" gradientUnits="userSpaceOnUse">
<stop stop-color="#5B85FF"/>
<stop offset="1" stop-color="#3F6FFA"/>
</linearGradient>
</defs>
</svg>
