<svg width="64" height="64" viewBox="0 0 64 64" fill="none" xmlns="http://www.w3.org/2000/svg">
<path opacity="0.4" d="M13.333 28.6L6.66636 24.8C6.26636 24.5778 5.94369 24.2552 5.69836 23.832C5.45303 23.4089 5.33125 22.9547 5.33303 22.4694V14.8694C5.33303 14.3805 5.45569 13.9245 5.70103 13.5014C5.94636 13.0783 6.26814 12.7556 6.66636 12.5334L13.333 8.73337C13.733 8.51115 14.1775 8.40004 14.6664 8.40004C15.1552 8.40004 15.5997 8.51115 15.9997 8.73337L22.6664 12.5334C23.0664 12.7556 23.389 13.0783 23.6344 13.5014C23.8797 13.9245 24.0015 14.3796 23.9997 14.8667V22.4667C23.9997 22.9556 23.8779 23.4116 23.6344 23.8347C23.3908 24.2578 23.0681 24.5796 22.6664 24.8L15.9997 28.6C15.5997 28.8223 15.1552 28.9334 14.6664 28.9334C14.1775 28.9334 13.733 28.8223 13.333 28.6ZM43.9997 34.6667V25.2L50.6664 29.1334C51.5108 29.6223 52.1668 30.2667 52.6344 31.0667C53.1019 31.8667 53.3348 32.7556 53.333 33.7334V46.2667C53.333 47.2445 53.1001 48.1334 52.6344 48.9334C52.1686 49.7334 51.5126 50.3778 50.6664 50.8667L39.9997 57.0667C39.1553 57.5556 38.2664 57.8 37.333 57.8C36.3997 57.8 35.5108 57.5556 34.6664 57.0667L23.9997 50.8667C23.1553 50.3778 22.5001 49.7334 22.0344 48.9334C21.5686 48.1334 21.3348 47.2445 21.333 46.2667V33.7334C21.333 32.7556 21.5668 31.8667 22.0344 31.0667C22.5019 30.2667 23.157 29.6223 23.9997 29.1334L30.6664 25.2V34.6667C30.6664 36.5334 31.3108 38.1112 32.5997 39.4C33.8886 40.6889 35.4664 41.3334 37.333 41.3334C39.1997 41.3334 40.7775 40.6889 42.0664 39.4C43.3553 38.1112 43.9997 36.5334 43.9997 34.6667ZM39.9997 21.3334V34.6667C39.9997 35.4223 39.7437 36.056 39.2317 36.568C38.7197 37.08 38.0868 37.3352 37.333 37.3334C36.5793 37.3316 35.9464 37.0756 35.4344 36.5654C34.9224 36.0552 34.6664 35.4223 34.6664 34.6667V8.00004C34.6664 7.24449 34.9224 6.6116 35.4344 6.10137C35.9464 5.59115 36.5793 5.33515 37.333 5.33337H53.6664C54.733 5.33337 55.533 5.80004 56.0664 6.73337C56.5997 7.66671 56.5553 8.57782 55.933 9.46671L54.333 11.8667C54.0219 12.3112 53.8664 12.8 53.8664 13.3334C53.8664 13.8667 54.0219 14.3556 54.333 14.8L55.933 17.2C56.5553 18.0889 56.5997 19 56.0664 19.9334C55.533 20.8667 54.733 21.3334 53.6664 21.3334H39.9997Z" fill="#1636FF"/>
</svg>
