<svg width="44" height="44" viewBox="0 0 44 44" fill="none" xmlns="http://www.w3.org/2000/svg">
<path fill-rule="evenodd" clip-rule="evenodd" d="M13.5347 33C11.0094 29.8697 9.42857 25.6127 9.42857 22C9.42857 15.0606 15.0606 9.42857 22 9.42857C28.9394 9.42857 34.5714 15.0606 34.5714 22C34.5714 25.6064 32.9953 29.8571 30.492 33H13.5347ZM28.3156 36.1429C28.2841 37.0433 28.2841 38.2077 28.2841 39.2857C28.2841 40.536 27.7875 41.7351 26.9034 42.6192C26.0193 43.5033 24.8202 44 23.5699 44H20.4286C19.1783 44 17.9792 43.5033 17.0951 42.6192C16.211 41.7351 15.7143 40.536 15.7143 39.2857V36.1429H28.3156ZM20.4286 1.57143C20.4286 1.15466 20.5941 0.754961 20.8888 0.460261C21.1835 0.165561 21.5832 0 22 0C22.4168 0 22.8165 0.165561 23.1112 0.460261C23.4059 0.754961 23.5714 1.15466 23.5714 1.57143V4.71429C23.5714 5.13105 23.4059 5.53075 23.1112 5.82545C22.8165 6.12015 22.4168 6.28571 22 6.28571C21.5832 6.28571 21.1835 6.12015 20.8888 5.82545C20.5941 5.53075 20.4286 5.13105 20.4286 4.71429V1.57143ZM6.44286 8.66643C6.14799 8.37136 5.98242 7.97124 5.98257 7.55409C5.98272 7.13694 6.14857 6.73694 6.44364 6.44207C6.73872 6.14721 7.13884 5.98164 7.55598 5.98178C7.97313 5.98193 8.37314 6.14778 8.668 6.44286L10.8429 8.61771C11.1379 8.91258 11.3038 9.31258 11.3039 9.72973C11.3041 10.1469 11.1385 10.547 10.8436 10.8421C10.5488 11.1371 10.1488 11.303 9.73163 11.3031C9.31448 11.3033 8.91436 11.1377 8.61929 10.8429L6.44286 8.66643ZM1.57143 23.5714C1.15466 23.5714 0.754961 23.4059 0.460261 23.1112C0.165561 22.8165 0 22.4168 0 22C0 21.5832 0.165561 21.1835 0.460261 20.8888C0.754961 20.5941 1.15466 20.4286 1.57143 20.4286H4.71429C5.13105 20.4286 5.53075 20.5941 5.82545 20.8888C6.12015 21.1835 6.28571 21.5832 6.28571 22C6.28571 22.4168 6.12015 22.8165 5.82545 23.1112C5.53075 23.4059 5.13105 23.5714 4.71429 23.5714H1.57143ZM39.2857 23.5714C38.8689 23.5714 38.4692 23.4059 38.1745 23.1112C37.8798 22.8165 37.7143 22.4168 37.7143 22C37.7143 21.5832 37.8798 21.1835 38.1745 20.8888C38.4692 20.5941 38.8689 20.4286 39.2857 20.4286H42.4286C42.8453 20.4286 43.245 20.5941 43.5397 20.8888C43.8344 21.1835 44 21.5832 44 22C44 22.4168 43.8344 22.8165 43.5397 23.1112C43.245 23.4059 42.8453 23.5714 42.4286 23.5714H39.2857ZM35.3807 10.8429C35.0856 11.1377 34.6855 11.3033 34.2684 11.3031C33.8512 11.303 33.4512 11.1371 33.1564 10.8421C32.8615 10.547 32.6959 10.1469 32.6961 9.72973C32.6962 9.31258 32.8621 8.91258 33.1571 8.61771L35.332 6.44286C35.478 6.29675 35.6514 6.18084 35.8422 6.10172C36.033 6.02261 36.2375 5.98186 36.444 5.98178C36.6506 5.98171 36.8551 6.02232 37.046 6.1013C37.2368 6.18027 37.4103 6.29607 37.5564 6.44207C37.7025 6.58807 37.8184 6.76142 37.8975 6.95222C37.9766 7.14302 38.0174 7.34754 38.0174 7.55409C38.0175 7.76064 37.9769 7.96518 37.8979 8.15604C37.8189 8.34689 37.7031 8.52032 37.5571 8.66643L35.3807 10.8429Z" fill="url(#paint0_linear_2295_335)"/>
<defs>
<linearGradient id="paint0_linear_2295_335" x1="22" y1="0" x2="22" y2="44" gradientUnits="userSpaceOnUse">
<stop stop-color="#5B85FF"/>
<stop offset="1" stop-color="#3F6FFA"/>
</linearGradient>
</defs>
</svg>
