<svg width="93" height="125" viewBox="0 0 93 125" fill="none" xmlns="http://www.w3.org/2000/svg">
<path d="M29.6481 96.533C10.4561 101.895 41.3251 112.972 65.7631 102.502C61.7601 100.946 58.8891 99.151 58.8891 99.151C47.9921 101.211 42.9371 101.373 33.0451 100.243C24.8811 99.308 29.6481 96.533 29.6481 96.533ZM62.8371 86.073C48.3931 88.852 40.0501 88.763 29.4831 87.673C21.3121 86.828 26.6611 82.868 26.6611 82.868C5.52412 89.884 38.4281 97.845 67.9701 89.204C64.8301 88.098 62.8371 86.073 62.8371 86.073ZM74.1561 25.498C74.1571 25.498 31.4251 36.167 51.8331 59.685C57.8571 66.62 50.2531 72.855 50.2531 72.855C50.2531 72.855 65.5421 64.964 58.5221 55.078C51.9631 45.863 46.9351 41.285 74.1561 25.498ZM84.1541 106.642C84.1541 106.642 87.6831 109.552 80.2661 111.801C66.1641 116.073 21.5601 117.361 9.17112 111.972C4.72112 110.034 13.0701 107.347 15.6971 106.78C18.4361 106.187 20.0001 106.295 20.0001 106.295C15.0481 102.808 -12.0129 113.145 6.25812 116.11C56.0791 124.186 97.0751 112.473 84.1541 106.642ZM67.0311 76.309C69.4261 74.675 72.7341 73.256 72.7341 73.256C72.7341 73.256 63.3101 74.941 53.9211 75.73C42.4271 76.694 30.0981 76.884 23.9091 76.056C9.25711 74.097 31.9421 68.708 31.9421 68.708C31.9421 68.708 23.1301 68.112 12.2981 73.352C-0.513884 79.547 43.9891 82.371 67.0311 76.309ZM72.6401 91.454C72.5321 91.744 72.1721 92.07 72.1721 92.07C103.445 83.849 91.9471 63.091 76.9941 68.345C75.6821 68.809 74.9941 69.888 74.9941 69.888C74.9941 69.888 75.8231 69.554 77.6721 69.168C85.2311 67.593 96.0611 79.287 72.6401 91.454ZM46.2121 68.482C41.5981 58.053 25.9521 48.929 46.2191 32.923C71.4901 12.976 58.5231 0 58.5231 0C63.7531 20.608 40.0721 26.833 31.5241 39.667C25.7031 48.412 34.3811 57.809 46.2121 68.482ZM73.4861 120.23C54.2991 123.842 30.6321 123.421 16.5991 121.104C16.5991 121.104 19.4731 123.484 34.2451 124.435C56.7211 125.872 91.2451 123.635 92.0611 112.999C92.0621 112.999 90.4911 117.031 73.4861 120.23Z" fill="url(#paint0_linear_2283_6816)"/>
<defs>
<linearGradient id="paint0_linear_2283_6816" x1="46.0306" y1="0" x2="46.0306" y2="124.827" gradientUnits="userSpaceOnUse">
<stop stop-color="#5B85FF"/>
<stop offset="1" stop-color="#3F6FFA"/>
</linearGradient>
</defs>
</svg>
