<svg width="107" height="66" viewBox="0 0 107 66" fill="none" xmlns="http://www.w3.org/2000/svg">
<path fill-rule="evenodd" clip-rule="evenodd" d="M22.2773 20.7583C22.4645 20.8663 22.6197 21.0219 22.7274 21.2092C22.8351 21.3965 22.8914 21.6089 22.8907 21.825L22.8693 37.6543C22.8693 37.873 22.752 38.081 22.5653 38.1876C22.4725 38.2453 22.3653 38.2758 22.256 38.2758C22.1467 38.2758 22.0395 38.2453 21.9467 38.1876L15.8827 34.7103C15.6946 34.6029 15.5382 34.4477 15.4296 34.2603C15.3209 34.073 15.2638 33.8602 15.264 33.6436V26.2463C15.2642 26.0297 15.2071 25.8169 15.0984 25.6296C14.9898 25.4422 14.8334 25.287 14.6453 25.1796L12.064 23.6916C11.8769 23.583 11.6644 23.5257 11.448 23.5257C11.2316 23.5257 11.0191 23.583 10.832 23.6916L8.24533 25.185C8.05822 25.293 7.90295 25.4485 7.79525 25.6358C7.68755 25.8231 7.63124 26.0356 7.632 26.2516V33.6436C7.63223 33.8602 7.5751 34.073 7.46644 34.2603C7.35777 34.4477 7.20144 34.6029 7.01333 34.7103L0.938667 38.193C0.846993 38.2485 0.741854 38.2779 0.634666 38.2779C0.527479 38.2779 0.422341 38.2485 0.330667 38.193C0.23469 38.1415 0.154923 38.0644 0.100291 37.9702C0.0456593 37.876 0.0183194 37.7685 0.0213331 37.6596L0 21.8303C0 21.3876 0.234666 20.977 0.618666 20.7583L10.8267 14.881C10.9949 14.7767 11.1888 14.7213 11.3867 14.721H11.4933C11.693 14.7203 11.8889 14.7757 12.0587 14.881L22.2773 20.7583ZM70.928 30.337C70.9751 30.3098 71.0146 30.271 71.0426 30.2244C71.0706 30.1777 71.0862 30.1247 71.088 30.0703V26.017C71.088 25.9103 71.024 25.8036 70.928 25.7503L67.4187 23.7236C67.3713 23.6975 67.3181 23.6838 67.264 23.6838C67.2099 23.6838 67.1567 23.6975 67.1093 23.7236L63.6053 25.7503C63.5592 25.7781 63.5208 25.8172 63.4938 25.8638C63.4667 25.9104 63.4519 25.9631 63.4507 26.017V30.0703C63.4507 30.177 63.5093 30.2836 63.6107 30.337L67.1147 32.3636C67.2107 32.417 67.328 32.417 67.424 32.3636L70.928 30.337ZM71.4187 0.0809517C71.5123 0.0287833 71.6175 0.000956047 71.7247 2.42017e-05C71.8318 -0.000907644 71.9375 0.0250836 72.032 0.0756162L78.112 3.46762C78.3047 3.57378 78.4652 3.72981 78.5769 3.91935C78.6886 4.10889 78.7472 4.32497 78.7467 4.54495V33.9423C78.7469 34.1589 78.6898 34.3717 78.5811 34.559C78.4724 34.7464 78.3161 34.9016 78.128 35.009L67.9093 40.913C67.7222 41.0216 67.5097 41.0788 67.2933 41.0788C67.077 41.0788 66.8644 41.0216 66.6773 40.913L56.4587 35.0143C56.2706 34.9069 56.1142 34.7517 56.0056 34.5643C55.8969 34.377 55.8398 34.1642 55.84 33.9476V22.1503C55.8398 21.9337 55.8969 21.7209 56.0056 21.5336C56.1142 21.3462 56.2706 21.191 56.4587 21.0836L66.6773 15.185C66.8644 15.0763 67.077 15.0191 67.2933 15.0191C67.5097 15.0191 67.7222 15.0763 67.9093 15.185L70.4693 16.6623C70.5349 16.6995 70.609 16.7189 70.6844 16.7186C70.7598 16.7183 70.8338 16.6983 70.899 16.6606C70.9642 16.6228 71.0185 16.5687 71.0563 16.5035C71.0941 16.4383 71.1143 16.3643 71.1147 16.289V0.603616C71.1166 0.496364 71.1454 0.391315 71.1985 0.298122C71.2517 0.20493 71.3274 0.126582 71.4187 0.0702833M106.667 24.849C106.667 25.065 106.611 25.2774 106.503 25.4648C106.396 25.6521 106.24 25.8076 106.053 25.9156L99.9253 29.473C99.8306 29.5252 99.7242 29.5527 99.616 29.5527C99.5078 29.5527 99.4014 29.5252 99.3067 29.473C99.2144 29.4173 99.1376 29.3392 99.0835 29.246C99.0295 29.1528 98.9998 29.0474 98.9973 28.9396V26.033C98.9954 25.9257 98.9666 25.8207 98.9135 25.7275C98.8603 25.6343 98.7846 25.5559 98.6933 25.4996L95.4933 23.6543C95.4005 23.5967 95.2933 23.5661 95.184 23.5661C95.0747 23.5661 94.9676 23.5967 94.8747 23.6543L91.6747 25.4996C91.5834 25.5559 91.5077 25.6343 91.4546 25.7275C91.4014 25.8207 91.3726 25.9257 91.3707 26.033V29.7343C91.3707 29.9476 91.488 30.161 91.68 30.2676L101.957 36.161C102.053 36.2149 102.132 36.2931 102.187 36.3878C102.243 36.4824 102.272 36.59 102.272 36.6996C102.272 36.8092 102.243 36.9168 102.187 37.0115C102.132 37.1061 102.053 37.1844 101.957 37.2383L95.8133 40.6516C95.6279 40.7547 95.4188 40.8079 95.2066 40.8061C94.9944 40.8042 94.7863 40.7473 94.6027 40.641L84.4533 34.8543C84.2652 34.7469 84.1089 34.5917 84.0002 34.4043C83.8916 34.217 83.8344 34.0042 83.8347 33.7876V21.9903C83.8339 21.7742 83.8902 21.5618 83.9979 21.3745C84.1056 21.1872 84.2609 21.0317 84.448 20.9236L94.6667 15.0303C94.8538 14.9216 95.0663 14.8644 95.2827 14.8644C95.499 14.8644 95.7116 14.9216 95.8987 15.0303L106.053 20.9236C106.24 21.0317 106.396 21.1872 106.503 21.3745C106.611 21.5618 106.667 21.7742 106.667 21.9903V24.849ZM52.72 65.3236C52.3653 65.3204 52.017 65.2287 51.7067 65.057L48.496 63.1476C48.016 62.881 48.2507 62.785 48.4053 62.7316C48.9164 62.5729 49.4056 62.3507 49.8613 62.0703C49.9396 62.0347 50.0196 62.0401 50.1013 62.0863L52.5707 63.553C52.6613 63.601 52.784 63.601 52.8693 63.553L62.5013 57.9903C62.5457 57.9623 62.5826 57.9239 62.6086 57.8783C62.6347 57.8327 62.6491 57.7814 62.6507 57.729V46.6143C62.6507 46.5076 62.5973 46.401 62.5013 46.3476L52.8747 40.7956C52.8286 40.7713 52.7774 40.7586 52.7253 40.7586C52.6733 40.7586 52.622 40.7713 52.576 40.7956L42.9493 46.3476C42.9032 46.3755 42.8648 46.4145 42.8378 46.4611C42.8107 46.5077 42.7959 46.5604 42.7947 46.6143V57.7236C42.7947 57.8303 42.8533 57.9316 42.944 57.9796L45.584 59.505C47.0133 60.2196 47.888 59.377 47.888 58.529V47.5583C47.888 47.3983 48.016 47.281 48.1707 47.281H49.392C49.5413 47.281 49.6693 47.3983 49.6693 47.5583V58.5343C49.6693 60.4436 48.624 61.537 46.816 61.537C46.256 61.537 45.8187 61.537 44.592 60.9343L42.0693 59.4783C41.7605 59.3 41.5042 59.0434 41.3263 58.7344C41.1484 58.4254 41.0551 58.0749 41.056 57.7183V46.609C41.0551 46.2524 41.1484 45.9019 41.3263 45.5929C41.5042 45.2839 41.7605 45.0272 42.0693 44.849L51.712 39.2863C52.0233 39.1182 52.3716 39.0303 52.7253 39.0303C53.0791 39.0303 53.4273 39.1182 53.7387 39.2863L63.3653 44.8543C63.6734 45.0321 63.9292 45.2879 64.107 45.5959C64.2849 45.9039 64.3786 46.2533 64.3787 46.609V57.7236C64.3795 58.0802 64.2863 58.4307 64.1084 58.7397C63.9304 59.0487 63.6741 59.3053 63.3653 59.4836L53.7333 65.041C53.4235 65.2146 53.0752 65.3081 52.72 65.313M55.696 57.6543C51.4827 57.6543 50.5973 55.7183 50.5973 54.097C50.5973 53.937 50.7253 53.8196 50.88 53.8196H52.1227C52.1891 53.8178 52.2538 53.8409 52.3041 53.8843C52.3544 53.9277 52.3867 53.9883 52.3947 54.0543C52.5867 55.3236 53.1413 55.9636 55.6907 55.9636C57.7227 55.9636 58.5867 55.4996 58.5867 54.4276C58.5867 53.8036 58.3413 53.345 55.184 53.041C52.5493 52.7743 50.9173 52.193 50.9173 50.0863C50.9173 48.145 52.56 46.9823 55.3067 46.9823C58.3893 46.9823 59.9147 48.0543 60.1067 50.353C60.1104 50.3916 60.106 50.4305 60.0937 50.4673C60.0815 50.5041 60.0616 50.5379 60.0355 50.5665C60.0094 50.5952 59.9775 50.618 59.942 50.6336C59.9065 50.6492 59.8681 50.6571 59.8293 50.657H58.576C58.5136 50.6582 58.4528 50.6376 58.404 50.5986C58.3553 50.5596 58.3218 50.5048 58.3093 50.4436C58.0053 49.1103 57.28 48.6836 55.3013 48.6836C53.0827 48.6836 52.8267 49.4516 52.8267 50.033C52.8267 50.737 53.1307 50.9396 56.1173 51.3343C59.0827 51.729 60.4907 52.2836 60.4907 54.3636C60.4907 56.4596 58.7307 57.665 55.6853 57.665L55.696 57.6543ZM67.4187 45.873H67.7387C68.0053 45.873 68.0587 45.6916 68.0587 45.5796C68.0587 45.297 67.8613 45.297 67.7493 45.297H67.4187V45.873ZM67.024 44.9663H67.7387C67.984 44.9663 68.4693 44.9663 68.4693 45.5156C68.4693 45.8943 68.224 45.9743 68.0747 46.0223C68.3573 46.0436 68.3787 46.225 68.416 46.4756V46.497L68.4213 46.5183C68.4427 46.6836 68.4747 46.9556 68.528 47.0516H68.0853L68.08 46.9823L68.0053 46.3956C67.9787 46.273 67.936 46.2143 67.792 46.2143H67.424V47.0516H67.024V44.9663ZM69.5733 46.001C69.5744 46.3695 69.466 46.7301 69.2619 47.0371C69.0577 47.344 68.7671 47.5834 68.4268 47.7249C68.0864 47.8665 67.7117 47.9038 67.3502 47.8321C66.9886 47.7605 66.6565 47.5831 66.3959 47.3224C66.1352 47.0618 65.9578 46.7297 65.8862 46.3681C65.8145 46.0065 65.8518 45.6319 65.9934 45.2915C66.1349 44.9512 66.3743 44.6605 66.6812 44.4564C66.9881 44.2523 67.3487 44.1439 67.7173 44.145C68.72 44.145 69.5733 44.9556 69.5733 46.0063M95.1307 25.3556C95.1661 25.3315 95.2079 25.3187 95.2507 25.3187C95.2935 25.3187 95.3353 25.3315 95.3707 25.3556L97.328 26.4863C97.3634 26.5089 97.3929 26.5395 97.4142 26.5756C97.4355 26.6118 97.448 26.6524 97.4507 26.6943V28.9556C97.4471 29.0445 97.4062 29.1121 97.328 29.1583L95.3707 30.2943C95.3353 30.3184 95.2935 30.3312 95.2507 30.3312C95.2079 30.3312 95.1661 30.3184 95.1307 30.2943L93.1733 29.1583C93.1361 29.1396 93.1052 29.1105 93.0844 29.0745C93.0635 29.0385 93.0537 28.9972 93.056 28.9556V26.6943C93.056 26.6054 93.0951 26.5361 93.1733 26.4863L95.1307 25.3556ZM40.24 15.3556C40.0473 15.2462 39.8296 15.1887 39.608 15.1887C39.3864 15.1887 39.1687 15.2462 38.976 15.3556L28.48 21.409C28.2888 21.5218 28.1303 21.6824 28.02 21.875C27.9096 22.0676 27.8513 22.2856 27.8507 22.5076V34.6303C27.8507 35.0783 28.096 35.4996 28.4907 35.7236L38.976 41.7823C39.1687 41.8917 39.3864 41.9492 39.608 41.9492C39.8296 41.9492 40.0473 41.8917 40.24 41.7823L50.7253 35.7236C50.9167 35.6119 51.0758 35.4524 51.1871 35.2608C51.2983 35.0691 51.3579 34.8519 51.36 34.6303V22.5076C51.3588 22.2851 51.2997 22.0668 51.1884 21.8741C51.0771 21.6815 50.9175 21.5211 50.7253 21.409L40.24 15.3556Z" fill="url(#paint0_linear_2283_6822)"/>
<defs>
<linearGradient id="paint0_linear_2283_6822" x1="53.3333" y1="0" x2="53.3333" y2="65.3236" gradientUnits="userSpaceOnUse">
<stop stop-color="#5B85FF"/>
<stop offset="1" stop-color="#3F6FFA"/>
</linearGradient>
</defs>
</svg>
