<svg width="40" height="42" viewBox="0 0 40 42" fill="none" xmlns="http://www.w3.org/2000/svg">
<path d="M12.83 28.1412C11.6366 29.0744 10.6714 30.2673 10.0078 31.6292C9.3442 32.9911 8.99954 34.4862 9 36.0012V39.0012H3C1.34 39.0012 0 37.6612 0 36.0012V34.0012C0 30.1312 3.13 27.0012 7 27.0012H9C10.42 27.0012 11.73 27.4212 12.83 28.1412Z" fill="url(#paint0_linear_2295_314)"/>
<path d="M32 27.0012C34.4853 27.0012 36.5 24.9865 36.5 22.5012C36.5 20.0159 34.4853 18.0012 32 18.0012C29.5147 18.0012 27.5 20.0159 27.5 22.5012C27.5 24.9865 29.5147 27.0012 32 27.0012Z" fill="url(#paint1_linear_2295_314)"/>
<path d="M8 27.0012C10.4853 27.0012 12.5 24.9865 12.5 22.5012C12.5 20.0159 10.4853 18.0012 8 18.0012C5.51472 18.0012 3.5 20.0159 3.5 22.5012C3.5 24.9865 5.51472 27.0012 8 27.0012Z" fill="url(#paint2_linear_2295_314)"/>
<path d="M40 34.0012V36.0012C40 37.6612 38.66 39.0012 37 39.0012H31V36.0012C31 32.8112 29.5 29.9712 27.17 28.1412C28.27 27.4212 29.58 27.0012 31 27.0012H33C36.87 27.0012 40 30.1312 40 34.0012Z" fill="url(#paint3_linear_2295_314)"/>
<path d="M20 28.0012C23.0376 28.0012 25.5 25.5388 25.5 22.5012C25.5 19.4637 23.0376 17.0012 20 17.0012C16.9624 17.0012 14.5 19.4637 14.5 22.5012C14.5 25.5388 16.9624 28.0012 20 28.0012Z" fill="url(#paint4_linear_2295_314)"/>
<path d="M21 28.0012H19C14.589 28.0012 11 31.5902 11 36.0012V39.0012C11 40.6552 12.346 42.0012 14 42.0012H26C27.654 42.0012 29 40.6552 29 39.0012V36.0012C29 31.5902 25.411 28.0012 21 28.0012ZM34.5 13.6852L32.087 14.5432C31.9287 14.5995 31.7591 14.6164 31.5928 14.5924C31.4265 14.5683 31.2686 14.5042 31.1327 14.4054C30.9968 14.3066 30.887 14.1762 30.8128 14.0255C30.7386 13.8747 30.7023 13.7082 30.707 13.5402L30.777 10.9802L29.215 8.95022C29.1127 8.81701 29.0443 8.66089 29.0158 8.49534C28.9872 8.32979 28.9995 8.15979 29.0513 8.00002C29.1032 7.84024 29.1932 7.6955 29.3135 7.57828C29.4339 7.46106 29.5809 7.3749 29.742 7.32722L32.199 6.60322L33.647 4.49022C33.742 4.35162 33.8693 4.23825 34.0179 4.15991C34.1665 4.08158 34.332 4.04064 34.5 4.04064C34.668 4.04064 34.8335 4.08158 34.9821 4.15991C35.1307 4.23825 35.258 4.35162 35.353 4.49022L36.801 6.60322L39.258 7.32722C39.955 7.53222 40.228 8.37422 39.785 8.95022L38.223 10.9802L38.293 13.5402C38.2974 13.7081 38.261 13.8745 38.1867 14.0251C38.1125 14.1757 38.0027 14.306 37.8669 14.4048C37.731 14.5035 37.5732 14.5677 37.407 14.5918C37.2409 14.6159 37.0713 14.5993 36.913 14.5432L34.5 13.6852ZM5.5 13.6852L3.087 14.5432C2.9287 14.5995 2.75907 14.6164 2.59279 14.5924C2.42651 14.5683 2.26859 14.5042 2.13268 14.4054C1.99678 14.3066 1.88699 14.1762 1.81282 14.0255C1.73865 13.8747 1.70233 13.7082 1.707 13.5402L1.777 10.9802L0.215 8.95022C0.112657 8.81701 0.0442765 8.66089 0.0157628 8.49534C-0.012751 8.32979 -0.0005407 8.15979 0.0513391 8.00002C0.103219 7.84024 0.193209 7.6955 0.313538 7.57828C0.433868 7.46106 0.580922 7.3749 0.742 7.32722L3.199 6.60322L4.647 4.49022C4.74196 4.35162 4.86926 4.23825 5.01789 4.15991C5.16651 4.08158 5.33199 4.04064 5.5 4.04064C5.66801 4.04064 5.83349 4.08158 5.98211 4.15991C6.13074 4.23825 6.25804 4.35162 6.353 4.49022L7.801 6.60322L10.258 7.32722C10.955 7.53222 11.228 8.37422 10.785 8.95022L9.223 10.9802L9.293 13.5402C9.29743 13.7081 9.26095 13.8745 9.18671 14.0251C9.11247 14.1757 9.0027 14.306 8.86687 14.4048C8.73103 14.5035 8.57321 14.5677 8.40703 14.5918C8.24085 14.6159 8.0713 14.5993 7.913 14.5432L5.5 13.6852ZM20 11.4352L17.139 12.4522C16.9513 12.5189 16.7503 12.5389 16.5532 12.5104C16.3561 12.4819 16.1689 12.4058 16.0078 12.2887C15.8467 12.1716 15.7165 12.0171 15.6286 11.8384C15.5406 11.6597 15.4975 11.4623 15.503 11.2632L15.586 8.22822L13.734 5.82122C13.6127 5.66328 13.5316 5.47819 13.4979 5.28193C13.4641 5.08567 13.4786 4.88413 13.5401 4.69473C13.6016 4.50532 13.7084 4.33374 13.851 4.19479C13.9937 4.05585 14.168 3.95372 14.359 3.89722L17.272 3.03822L18.989 0.53322C19.1016 0.368841 19.2525 0.234377 19.4288 0.141467C19.605 0.0485566 19.8013 0 20.0005 0C20.1997 0 20.396 0.0485566 20.5722 0.141467C20.7485 0.234377 20.8994 0.368841 21.012 0.53322L22.729 3.03822L25.642 3.89722C25.833 3.95372 26.0073 4.05585 26.15 4.19479C26.2927 4.33374 26.3994 4.50532 26.4609 4.69473C26.5224 4.88413 26.5369 5.08567 26.5031 5.28193C26.4694 5.47819 26.3883 5.66328 26.267 5.82122L24.415 8.22822L24.498 11.2632C24.5035 11.4623 24.4604 11.6597 24.3724 11.8384C24.2845 12.0171 24.1543 12.1716 23.9932 12.2887C23.8321 12.4058 23.6449 12.4819 23.4478 12.5104C23.2507 12.5389 23.0497 12.5189 22.862 12.4522L20 11.4352Z" fill="url(#paint5_linear_2295_314)"/>
<defs>
<linearGradient id="paint0_linear_2295_314" x1="20.0001" y1="0" x2="20.0001" y2="42.0012" gradientUnits="userSpaceOnUse">
<stop stop-color="#5B85FF"/>
<stop offset="1" stop-color="#3F6FFA"/>
</linearGradient>
<linearGradient id="paint1_linear_2295_314" x1="20.0001" y1="0" x2="20.0001" y2="42.0012" gradientUnits="userSpaceOnUse">
<stop stop-color="#5B85FF"/>
<stop offset="1" stop-color="#3F6FFA"/>
</linearGradient>
<linearGradient id="paint2_linear_2295_314" x1="20.0001" y1="0" x2="20.0001" y2="42.0012" gradientUnits="userSpaceOnUse">
<stop stop-color="#5B85FF"/>
<stop offset="1" stop-color="#3F6FFA"/>
</linearGradient>
<linearGradient id="paint3_linear_2295_314" x1="20.0001" y1="0" x2="20.0001" y2="42.0012" gradientUnits="userSpaceOnUse">
<stop stop-color="#5B85FF"/>
<stop offset="1" stop-color="#3F6FFA"/>
</linearGradient>
<linearGradient id="paint4_linear_2295_314" x1="20.0001" y1="0" x2="20.0001" y2="42.0012" gradientUnits="userSpaceOnUse">
<stop stop-color="#5B85FF"/>
<stop offset="1" stop-color="#3F6FFA"/>
</linearGradient>
<linearGradient id="paint5_linear_2295_314" x1="20.0001" y1="0" x2="20.0001" y2="42.0012" gradientUnits="userSpaceOnUse">
<stop stop-color="#5B85FF"/>
<stop offset="1" stop-color="#3F6FFA"/>
</linearGradient>
</defs>
</svg>
