<svg width="160" height="85" viewBox="0 0 160 85" fill="none" xmlns="http://www.w3.org/2000/svg">
<path d="M80 4.2C122.85 4.2 155.8 22.25 155.8 42.075C155.8 61.9 122.825 79.95 80 79.95C37.15 79.95 4.2 61.9 4.2 42.075C4.2 22.25 37.175 4.2 80 4.2ZM80 0C35.825 0 0 18.825 0 42.075C0 65.325 35.825 84.15 80 84.15C124.175 84.15 160 65.325 160 42.075C160 18.825 124.175 0 80 0ZM54.55 38.7C52.575 48.825 45.6 47.775 37.025 47.775L40.45 30.125C49.95 30.125 56.4 29.1 54.55 38.7ZM24.35 65.65H33.525L35.7 54.45C45.975 54.45 52.35 55.2 58.25 49.675C64.775 43.675 66.475 33 61.825 27.65C59.4 24.85 55.5 23.475 50.2 23.475H32.525L24.35 65.65ZM70.775 12.25H79.9L77.725 23.45C85.6 23.45 92.9 22.875 96.425 26.125C100.125 29.525 98.35 33.875 94.35 54.4H85.1C88.95 34.55 89.675 32.9 88.275 31.4C86.925 29.95 83.85 30.25 76.425 30.25L71.725 54.4H62.6L70.775 12.25ZM126.25 38.7C124.25 48.975 117.075 47.775 108.725 47.775L112.15 30.125C121.7 30.125 128.1 29.1 126.25 38.7ZM96.05 65.65H105.25L107.425 54.45C118.225 54.45 124.2 55.075 129.975 49.675C136.5 43.675 138.2 33 133.55 27.65C131.125 24.85 127.225 23.475 121.925 23.475H104.25L96.05 65.65Z" fill="url(#paint0_linear_2283_6824)"/>
<defs>
<linearGradient id="paint0_linear_2283_6824" x1="80" y1="0" x2="80" y2="84.15" gradientUnits="userSpaceOnUse">
<stop stop-color="#5B85FF"/>
<stop offset="1" stop-color="#3F6FFA"/>
</linearGradient>
</defs>
</svg>
