<svg width="107" height="107" viewBox="0 0 107 107" fill="none" xmlns="http://www.w3.org/2000/svg">
<path d="M73.333 21.2158C73.333 17.3166 72.3932 14.5063 70.4756 13.0078C67.5543 10.7283 62.2489 8 53.333 8C44.4119 8.00007 39.1119 10.7271 36.1904 13.0068C34.2728 14.5053 33.333 17.3166 33.333 21.2158V25.333H53.333C55.542 25.333 57.3328 27.124 57.333 29.333C57.333 31.5421 55.5421 33.333 53.333 33.333H21.2158C17.3166 33.333 14.5063 34.2738 13.0078 36.1914L13.0068 36.1904C10.7271 39.1119 8.00007 44.4119 8 53.333C8 62.2494 10.7282 67.5544 13.0078 70.4756L13.1523 70.6523C14.6832 72.4509 17.4384 73.333 21.2158 73.333H25.333V64C25.333 60.1102 26.8784 56.3794 29.6289 53.6289C32.3794 50.8784 36.1102 49.333 40 49.333H66.667C68.435 49.3329 70.1307 48.631 71.3809 47.3809C72.631 46.1307 73.3329 44.435 73.333 42.667V21.2158ZM81.333 42.667C81.3329 46.5567 79.7876 50.2867 77.0371 53.0371C74.2867 55.7876 70.5567 57.3329 66.667 57.333H40C38.2319 57.333 36.5364 58.0359 35.2861 59.2861C34.0359 60.5364 33.333 62.2319 33.333 64V85.4502C33.333 89.3438 34.2733 92.1586 36.1895 93.6572L36.7646 94.0898C39.7868 96.2682 44.9722 98.6669 53.333 98.667C62.2565 98.667 67.5552 95.9374 70.4746 93.6543L70.4785 93.6514C72.3917 92.1593 73.333 89.3477 73.333 85.4453V81.333H53.333C51.124 81.3328 49.333 79.542 49.333 77.333C49.3332 75.1241 51.1241 73.3332 53.333 73.333H85.4453C89.3477 73.333 92.1593 72.3917 93.6514 70.4785L93.6543 70.4746C95.9374 67.5552 98.667 62.2565 98.667 53.333C98.6669 44.415 95.9371 39.1102 93.6572 36.1895C92.1585 34.2738 89.3434 33.333 85.4502 33.333H81.333V42.667ZM81.333 25.333H85.4502C90.0059 25.333 95.7853 26.333 99.5996 30.8203L99.9629 31.2646L99.9639 31.2666C103.337 35.5884 106.667 42.6248 106.667 53.333C106.667 64.043 103.339 71.0738 99.959 75.3975L99.96 75.3984C96.1613 80.2693 90.1509 81.333 85.4453 81.333H81.333V85.4453C81.333 90.1509 80.2693 96.1613 75.3984 99.96L75.3975 99.959C71.0738 103.339 64.043 106.667 53.333 106.667C42.6248 106.667 35.5884 103.337 31.2666 99.9639L31.2646 99.9629C26.398 96.1598 25.333 90.1527 25.333 85.4502V81.333H21.2158C16.5072 81.333 10.5069 80.2677 6.7041 75.4014L6.70312 75.3994C3.32971 71.0776 0 64.0413 0 53.333C6.77484e-05 42.6191 3.32992 35.5881 6.70312 31.2666L6.7041 31.2646C10.5069 26.3985 16.5072 25.333 21.2158 25.333H25.333V21.2158C25.333 16.5072 26.3985 10.5069 31.2646 6.7041L31.2666 6.70312C35.5881 3.32992 42.6191 6.77449e-05 53.333 0C63.7066 0 70.6343 3.12454 74.9863 6.38672L75.3994 6.70312L75.4014 6.7041C80.2677 10.5069 81.333 16.5072 81.333 21.2158V25.333Z" fill="url(#paint0_linear_2283_6835)"/>
<path d="M69.334 87.9994C69.334 89.0602 68.9126 90.0776 68.1624 90.8278C67.4123 91.5779 66.3949 91.9994 65.334 91.9994C64.2731 91.9994 63.2557 91.5779 62.5056 90.8278C61.7554 90.0776 61.334 89.0602 61.334 87.9994C61.334 86.9385 61.7554 85.9211 62.5056 85.1709C63.2557 84.4208 64.2731 83.9994 65.334 83.9994C66.3949 83.9994 67.4123 84.4208 68.1624 85.1709C68.9126 85.9211 69.334 86.9385 69.334 87.9994ZM37.334 18.666C37.334 17.6052 37.7554 16.5877 38.5056 15.8376C39.2557 15.0874 40.2731 14.666 41.334 14.666C42.3949 14.666 43.4123 15.0874 44.1624 15.8376C44.9126 16.5877 45.334 17.6052 45.334 18.666C45.334 19.7269 44.9126 20.7443 44.1624 21.4944C43.4123 22.2446 42.3949 22.666 41.334 22.666C40.2731 22.666 39.2557 22.2446 38.5056 21.4944C37.7554 20.7443 37.334 19.7269 37.334 18.666Z" fill="url(#paint1_linear_2283_6835)"/>
<defs>
<linearGradient id="paint0_linear_2283_6835" x1="53.3335" y1="0" x2="53.3335" y2="106.667" gradientUnits="userSpaceOnUse">
<stop stop-color="#5B85FF"/>
<stop offset="1" stop-color="#3F6FFA"/>
</linearGradient>
<linearGradient id="paint1_linear_2283_6835" x1="53.3335" y1="0" x2="53.3335" y2="106.667" gradientUnits="userSpaceOnUse">
<stop stop-color="#5B85FF"/>
<stop offset="1" stop-color="#3F6FFA"/>
</linearGradient>
</defs>
</svg>
