<svg width="128" height="48" viewBox="0 0 128 48" fill="none" xmlns="http://www.w3.org/2000/svg">
<path d="M111.396 41.52V47.708H121.96C124.128 47.708 127.836 46.04 127.96 41.332V38.936C127.96 34.936 124.876 32.56 121.96 32.56H116.688V29.684H127.124V23.432H117.104C114.52 23.432 111.064 25.704 111.064 29.912V32.08C111.064 36.288 114.48 38.456 117.104 38.456C124.376 38.496 115.352 38.456 122.084 38.456V41.476L111.396 41.52ZM54.752 40C54.752 40 60.42 39.48 60.42 31.748C60.42 23.996 53.564 23.268 53.564 23.268H41.208V47.704H47.416V41.808L52.792 47.704H61.96L54.752 40ZM52.356 35H47.42V29.416H52.4C52.4 29.416 53.796 29.956 53.796 32.188C53.796 34.42 52.36 35 52.36 35H52.356ZM75.728 23.44H69.436C64.936 23.44 63.416 27.772 63.416 29.816V47.712H69.728V43.44H75.644V47.712H81.748V29.816C81.748 24.608 77.288 23.44 75.728 23.44ZM75.644 36.5H69.684V30.584C69.684 30.584 69.684 29.228 71.664 29.228H73.832C75.56 29.228 75.604 30.584 75.604 30.584V36.5H75.644ZM84.624 23.44H91.188V47.712H84.624V23.44ZM100.396 41.44V23.44H93.876V47.712H109.232V41.44H100.396ZM2.272 47.708H27.792C27.792 47.708 22.916 24.104 39.084 14.52C42.604 12.708 53.812 5.916 72.188 20.312C72.752 19.812 73.312 19.396 73.312 19.396C73.312 19.396 56.5 1.604 37.792 3.584C28.376 4.48 16.812 13.564 10.02 25.564C3.228 37.564 2.268 47.708 2.268 47.708H2.272ZM2.272 47.708H27.792C27.792 47.708 22.916 24.104 39.084 14.52C42.604 12.708 53.812 5.916 72.188 20.312C72.752 19.812 73.312 19.396 73.312 19.396C73.312 19.396 56.5 1.604 37.792 3.584C28.376 4.48 16.812 13.564 10.02 25.564C3.228 37.564 2.268 47.708 2.268 47.708H2.272ZM2.272 47.708H27.792C27.792 47.708 22.916 24.104 39.084 14.52C42.604 12.708 53.812 5.916 72.188 20.312C72.752 19.812 73.312 19.396 73.312 19.396C73.312 19.396 56.5 1.604 37.792 3.584C28.356 4.48 16.772 13.564 9.98 25.564C3.208 37.564 2.272 47.708 2.272 47.708ZM55.46 5.52L55.604 3.208C55.312 3.04 54.5 2.624 52.46 2.02L52.336 4.272C53.4 4.64533 54.4413 5.05867 55.46 5.52ZM52.396 12.772L52.272 14.94C53.336 14.98 54.396 15.108 55.46 15.356L55.604 13.232C54.5463 13.0066 53.4745 12.8529 52.396 12.772ZM40.436 2.084H40.748L40.104 0C39.104 0 38.084 0.0639997 37 0.188L37.624 2.228C38.56 2.12933 39.4973 2.08133 40.436 2.084ZM41.98 14.708L42.732 17.064C43.634 16.5891 44.5747 16.1917 45.544 15.876L44.836 13.604C43.732 13.936 42.796 14.312 41.98 14.708ZM27.312 5.688L25.852 3.312C25.04 3.772 24.208 4.248 23.332 4.792L24.832 7.188C25.6356 6.6508 26.4631 6.15029 27.312 5.688ZM33.936 21.104L35.5 23.584C36.04 22.728 36.688 21.94 37.396 21.148L35.936 18.816C35.2121 19.5281 34.5435 20.2903 33.936 21.104ZM29.252 32.148L31.876 34.356C32.004 33.004 32.2267 31.664 32.544 30.336L30.232 28.376C29.796 29.648 29.524 30.916 29.252 32.148ZM15.104 15.876L12.792 13.752C11.96 14.608 11.148 15.46 10.416 16.316L12.896 18.588C13.584 17.652 14.312 16.732 15.104 15.88V15.876ZM5.332 31.188L1.624 29.752C1 31.232 0.332 32.94 0 33.876L3.708 35.312C4.144 34.144 4.812 32.456 5.332 31.188ZM28.772 40.856C28.836 42.668 29 44.148 29.148 45.188L33.044 46.648C32.7153 45.1735 32.4511 43.6855 32.252 42.188L28.772 40.856Z" fill="url(#paint0_linear_2283_6826)"/>
<defs>
<linearGradient id="paint0_linear_2283_6826" x1="63.98" y1="0" x2="63.98" y2="47.712" gradientUnits="userSpaceOnUse">
<stop stop-color="#5B85FF"/>
<stop offset="1" stop-color="#3F6FFA"/>
</linearGradient>
</defs>
</svg>
