<svg width="128" height="67" viewBox="0 0 128 67" fill="none" xmlns="http://www.w3.org/2000/svg">
<path d="M0 60.5534H4.242V43.8064L10.808 58.4044C11.581 60.1744 12.64 60.7954 14.722 60.7954C16.804 60.7954 17.82 60.1744 18.593 58.4044L25.159 43.8064V60.5524H29.401V43.8344C29.401 42.2014 28.749 41.4124 27.401 41.0064C24.178 40.0024 22.018 40.8694 21.038 43.0454L14.597 57.4554L8.359 43.0454C7.422 40.8694 5.219 40.0024 2 41.0064C0.652 41.4124 0 42.2014 0 43.8344L0 60.5534ZM32.93 46.9204H37.168V56.1474C37.129 56.6474 37.328 57.8234 39.652 57.8624H48.875V46.8734H53.125C53.145 46.8734 53.117 61.8574 53.117 61.9204C53.14 65.6154 48.535 66.4164 46.41 66.4794H33.02V63.6274L46.434 63.6234C49.164 63.3384 48.84 61.9784 48.84 61.5254V60.4124H39.828C35.633 60.3734 32.965 58.5414 32.93 56.4354C32.926 56.2444 33.02 47.0144 32.93 46.9204ZM56.391 60.5534H68.586C70.012 60.5534 71.399 60.2524 72.5 59.7374C74.336 58.8974 75.23 57.7534 75.23 56.2574V53.1594C75.23 51.9364 74.214 50.7924 72.214 50.0344C71.155 49.6244 69.847 49.4094 68.585 49.4094H63.444C61.733 49.4094 60.917 48.8934 60.714 47.7534C60.675 47.6164 60.675 47.5074 60.675 47.3704V45.4404C60.675 45.3314 60.675 45.2214 60.714 45.0854C60.917 44.2184 61.366 43.9724 62.874 43.8354L63.284 43.8084H75.393V40.9844H63.488C61.777 40.9844 60.879 41.0934 60.062 41.3364C57.535 42.1254 56.433 43.3754 56.433 45.5514V48.0244C56.433 49.9264 58.593 51.5594 62.222 51.9384C62.632 51.9654 63.038 51.9934 63.445 51.9934H67.851C68.015 51.9934 68.175 51.9934 68.3 52.0204C69.644 52.1294 70.214 52.3754 70.624 52.8644C70.835 53.0594 70.956 53.3374 70.948 53.6224V56.0994C70.948 56.3964 70.745 56.7794 70.339 57.1034C69.972 57.4314 69.359 57.6464 68.546 57.7014L68.097 57.7284H56.391V60.5534ZM101.688 55.6314C101.688 58.5414 103.852 60.1704 108.211 60.4984C108.621 60.5254 109.027 60.5534 109.438 60.5534H120.489V57.7254H109.356C106.868 57.7254 105.93 57.1004 105.93 55.6044V40.9784H101.692V55.6304L101.688 55.6314ZM77.938 55.7794V45.6974C77.938 43.1384 79.739 41.5844 83.293 41.0954C83.6722 41.0407 84.0549 41.0133 84.438 41.0134H92.485C92.895 41.0134 93.262 41.0404 93.673 41.0954C97.228 41.5834 99.025 43.1384 99.025 45.6974V55.7794C99.025 57.8574 98.263 58.9674 96.502 59.6934L100.682 63.4634H95.756L92.377 60.4124L88.975 60.6274H84.44C83.5971 60.6248 82.7586 60.5063 81.948 60.2754C79.249 59.5414 77.94 58.1234 77.94 55.7794H77.938ZM82.516 55.5334C82.516 55.6704 82.559 55.8064 82.598 55.9714C82.844 57.1434 83.95 57.7954 85.621 57.7954H89.473L85.934 54.6004H90.86L93.946 57.3894C94.516 57.0844 94.891 56.6234 95.02 56.0264C95.063 55.8894 95.063 55.7534 95.063 55.6164V45.9484C95.063 45.8394 95.063 45.7024 95.02 45.5654C94.774 44.4754 93.672 43.8504 92.04 43.8504H85.622C83.743 43.8504 82.517 44.6664 82.517 45.9484L82.516 55.5334ZM124.219 36.2874C121.614 36.2174 119.621 36.4594 117.918 37.1784C117.434 37.3814 116.66 37.3854 116.582 37.9914C116.848 38.2724 116.891 38.6904 117.102 39.0304C117.508 39.6904 118.196 40.5694 118.809 41.0304C119.473 41.5384 120.164 42.0774 120.883 42.5144C122.156 43.2914 123.582 43.7374 124.813 44.5144C125.536 44.9754 126.254 45.5534 126.961 46.0734C127.309 46.3274 127.543 46.7294 128 46.8894V46.8154C127.762 46.5104 127.699 46.0924 127.48 45.7764L126.515 44.8114C125.574 43.5614 124.378 42.4634 123.105 41.5494C122.089 40.8224 119.824 39.8384 119.398 38.6584L119.324 38.5844C120.043 38.5064 120.887 38.2444 121.547 38.0684C122.664 37.7674 123.66 37.8454 124.809 37.5484L126.368 37.0994V36.8064C125.786 36.2084 125.372 35.4194 124.735 34.8764C123.079 33.4664 121.266 32.0524 119.399 30.8724C118.364 30.2204 117.087 29.7984 115.989 29.2434C115.622 29.0564 114.973 28.9624 114.727 28.6494C114.153 27.9154 113.84 26.9854 113.395 26.1294C112.446 24.2808 111.556 22.4022 110.727 20.4964C110.165 19.2114 109.797 17.9414 109.094 16.7894C105.731 11.2544 102.106 7.91441 96.492 4.63341C95.301 3.93441 93.859 3.66041 92.344 3.30141L89.895 3.15341C89.399 2.94241 88.883 2.33341 88.415 2.04041C86.556 0.86441 81.786 -1.68959 80.407 1.66941C79.54 3.79041 81.708 5.86041 82.485 6.93541C83.028 7.68941 83.727 8.53341 84.114 9.38041C84.372 9.93541 84.415 10.4934 84.634 11.0834C85.173 12.5364 85.642 14.1144 86.341 15.4584C86.693 16.1384 87.079 16.8534 87.525 17.4584C87.798 17.8294 88.267 17.9974 88.341 18.5714C87.884 19.2124 87.857 20.2044 87.599 21.0164C86.439 24.6684 86.876 29.2074 88.564 31.9144C89.08 32.7424 90.298 34.5234 91.974 33.8404C93.439 33.2424 93.111 31.3954 93.529 29.7624C93.627 29.3954 93.568 29.1214 93.752 28.8754V28.9494L95.088 31.6174C96.076 33.2074 97.826 34.8674 99.311 35.9884C100.084 36.5704 100.69 37.5784 101.686 37.9184V37.8404H101.612C101.417 37.5434 101.116 37.4184 100.87 37.1764C100.288 36.6064 99.643 35.8994 99.167 35.2464C97.815 33.4144 96.62 31.4064 95.534 29.3164C95.014 28.3204 94.561 27.2184 94.124 26.2034C93.956 25.8124 93.96 25.2194 93.608 25.0194C93.128 25.7614 92.421 26.3634 92.049 27.2424C91.455 28.6444 91.381 30.3594 91.158 32.1334L91.01 32.2074C89.979 31.9574 89.615 30.8954 89.233 29.9844C88.26 27.6794 88.081 23.9644 88.936 21.3124C89.155 20.6254 90.155 18.4604 89.749 17.8284C89.558 17.1954 88.921 16.8284 88.565 16.3444C88.0996 15.6954 87.7018 15.0004 87.378 14.2704C86.585 12.4694 86.214 10.4544 85.378 8.63741C84.98 7.76641 84.304 6.88741 83.749 6.11441C83.132 5.25941 82.444 4.63041 81.968 3.59441C81.8 3.22741 81.57 2.63741 81.82 2.25841C81.898 2.00441 82.015 1.89941 82.265 1.81741C82.695 1.48541 83.894 1.92641 84.339 2.11041C85.53 2.60641 86.523 3.07541 87.53 3.74341C88.01 4.06341 88.499 4.68441 89.085 4.85641H89.753C90.796 5.09441 91.964 4.92641 92.941 5.22341C94.664 5.74641 96.211 6.56341 97.609 7.45041C101.882 10.1454 105.375 13.9854 107.765 18.5674C108.152 19.3054 108.316 20.0084 108.656 20.7904C109.34 22.3684 110.199 23.9934 110.879 25.5364C111.559 27.0794 112.219 28.6304 113.176 29.9114C113.68 30.5834 115.629 30.9424 116.512 31.3174C117.133 31.5794 118.149 31.8524 118.735 32.2084C119.86 32.8844 120.946 33.6884 122.001 34.4314C122.524 34.8064 124.142 35.6194 124.224 36.2864L124.219 36.2874ZM91.082 8.04541C90.6335 8.03818 90.186 8.08791 89.75 8.19341V8.26741H89.824C90.082 8.80241 90.539 9.14641 90.859 9.60341L91.601 11.1584L91.675 11.0884C92.136 10.7644 92.343 10.2444 92.343 9.45541C92.156 9.26041 92.132 9.01841 91.972 8.78741C91.761 8.47841 91.352 8.30741 91.082 8.04541Z" fill="url(#paint0_linear_2283_6814)"/>
<defs>
<linearGradient id="paint0_linear_2283_6814" x1="64" y1="0" x2="64" y2="66.4794" gradientUnits="userSpaceOnUse">
<stop stop-color="#5B85FF"/>
<stop offset="1" stop-color="#3F6FFA"/>
</linearGradient>
</defs>
</svg>
