<svg width="41" height="43" viewBox="0 0 41 43" fill="none" xmlns="http://www.w3.org/2000/svg">
<path fill-rule="evenodd" clip-rule="evenodd" d="M25.6577 1.29798L27.5617 5.88398C28.5477 6.33598 29.4897 6.87998 30.3737 7.50798L35.2977 6.86598C35.5428 6.83359 35.7921 6.86228 36.0235 6.94951C36.2548 7.03675 36.461 7.17981 36.6237 7.36598C38.4541 9.46562 39.8594 11.9007 40.7617 14.536C40.9257 15.01 40.8397 15.536 40.5337 15.934L37.5157 19.876C37.6177 20.956 37.6177 22.044 37.5157 23.124L40.5337 27.066C40.6844 27.2619 40.7841 27.4923 40.8239 27.7362C40.8637 27.9802 40.8423 28.2303 40.7617 28.464C39.8594 31.0993 38.4541 33.5343 36.6237 35.634C36.461 35.8201 36.2548 35.9632 36.0235 36.0504C35.7921 36.1377 35.5428 36.1664 35.2977 36.134C35.2977 36.134 30.3737 35.492 30.3757 35.49C29.4915 36.1197 28.5493 36.6635 27.5617 37.114L25.6577 41.702C25.5629 41.93 25.4132 42.1311 25.222 42.2874C25.0308 42.4437 24.804 42.5504 24.5617 42.598C21.8277 43.134 19.0157 43.134 16.2817 42.598C16.0394 42.5504 15.8125 42.4437 15.6213 42.2874C15.4301 42.1311 15.2805 41.93 15.1857 41.702L13.2817 37.116C12.2956 36.6639 11.3541 36.1202 10.4697 35.492L5.54569 36.134C5.30058 36.1664 5.05126 36.1377 4.81992 36.0504C4.58858 35.9632 4.38239 35.8201 4.21969 35.634C2.38929 33.5343 0.98395 31.0993 0.081692 28.464C0.00106474 28.2303 -0.020311 27.9802 0.0194814 27.7362C0.0592738 27.4923 0.158991 27.2619 0.309692 27.066L3.32769 23.124C3.22569 22.0437 3.22569 20.9562 3.32769 19.876L0.309692 15.934C0.158991 15.738 0.0592738 15.5077 0.0194814 15.2637C-0.020311 15.0197 0.00106474 14.7697 0.081692 14.536C0.98395 11.9007 2.38929 9.46562 4.21969 7.36598C4.38239 7.17981 4.58858 7.03675 4.81992 6.94951C5.05126 6.86228 5.30058 6.83359 5.54569 6.86598C5.54569 6.86598 10.4697 7.50798 10.4677 7.50998C11.3518 6.88029 12.2941 6.33648 13.2817 5.88598L15.1857 1.29798C15.2805 1.06995 15.4301 0.868858 15.6213 0.712553C15.8125 0.556248 16.0394 0.449567 16.2817 0.401979C19.0157 -0.133993 21.8277 -0.133993 24.5617 0.401979C24.804 0.449567 25.0308 0.556248 25.222 0.712553C25.4132 0.868858 25.5629 1.06995 25.6577 1.29798ZM20.4217 9.99998C14.0737 9.99998 8.92169 15.152 8.92169 21.5C8.92169 27.848 14.0737 33 20.4217 33C26.7697 33 31.9217 27.848 31.9217 21.5C31.9217 15.152 26.7697 9.99998 20.4217 9.99998Z" fill="url(#paint0_linear_2295_342)"/>
<path fill-rule="evenodd" clip-rule="evenodd" d="M14.8617 22.56C14.7225 22.4208 14.6121 22.2555 14.5367 22.0736C14.4614 21.8918 14.4226 21.6968 14.4226 21.5C14.4226 21.3031 14.4614 21.1082 14.5367 20.9263C14.6121 20.7444 14.7225 20.5792 14.8617 20.44C15.0009 20.3008 15.1662 20.1904 15.348 20.115C15.5299 20.0397 15.7248 20.0009 15.9217 20.0009C16.1186 20.0009 16.3135 20.0397 16.4954 20.115C16.6772 20.1904 16.8425 20.3008 16.9817 20.44L18.9217 22.378L23.8617 17.44C24.0009 17.3008 24.1661 17.1904 24.348 17.115C24.5299 17.0397 24.7248 17.0009 24.9217 17.0009C25.1186 17.0009 25.3135 17.0397 25.4954 17.115C25.6772 17.1904 25.8425 17.3008 25.9817 17.44C26.1209 17.5792 26.2313 17.7444 26.3066 17.9263C26.382 18.1082 26.4208 18.3031 26.4208 18.5C26.4208 18.6968 26.382 18.8918 26.3066 19.0736C26.2313 19.2555 26.1209 19.4208 25.9817 19.56L19.9817 25.56C19.8426 25.6993 19.6773 25.8098 19.4954 25.8853C19.3136 25.9607 19.1186 25.9995 18.9217 25.9995C18.7248 25.9995 18.5298 25.9607 18.3479 25.8853C18.1661 25.8098 18.0008 25.6993 17.8617 25.56L14.8617 22.56Z" fill="url(#paint1_linear_2295_342)"/>
<defs>
<linearGradient id="paint0_linear_2295_342" x1="20.4217" y1="0" x2="20.4217" y2="43" gradientUnits="userSpaceOnUse">
<stop stop-color="#5B85FF"/>
<stop offset="1" stop-color="#3F6FFA"/>
</linearGradient>
<linearGradient id="paint1_linear_2295_342" x1="20.4217" y1="0" x2="20.4217" y2="43" gradientUnits="userSpaceOnUse">
<stop stop-color="#5B85FF"/>
<stop offset="1" stop-color="#3F6FFA"/>
</linearGradient>
</defs>
</svg>
