<svg width="46" height="38" viewBox="0 0 46 38" fill="none" xmlns="http://www.w3.org/2000/svg">
<path fill-rule="evenodd" clip-rule="evenodd" d="M40.8992 0H5.10079C3.74846 0.00160024 2.45198 0.534006 1.49574 1.48043C0.539505 2.42685 0.00159304 3.71002 0 5.04845L0 11.6573H46V5.04845C45.9981 3.71011 45.4601 2.42712 44.504 1.48078C43.5478 0.534438 42.2514 0.00198915 40.8992 0.000177743V0ZM0 14.0438V32.9516C0.00161681 34.2901 0.539539 35.5732 1.49577 36.5196C2.45201 37.466 3.74847 37.9984 5.10079 38H40.8992C42.2515 37.9982 43.5478 37.4657 44.504 36.5193C45.4601 35.573 45.9981 34.29 46 32.9516V14.0438H0ZM33.7108 21.8122L30.6637 24.8286L33.7105 27.8449C33.8225 27.9557 33.9113 28.0872 33.972 28.2319C34.0326 28.3767 34.0638 28.5318 34.0638 28.6885C34.0639 28.8452 34.0327 29.0003 33.9722 29.1451C33.9117 29.2898 33.8229 29.4214 33.711 29.5322C33.5991 29.643 33.4662 29.7309 33.32 29.7909C33.1737 29.8509 33.017 29.8818 32.8587 29.8819C32.7004 29.8819 32.5436 29.8511 32.3974 29.7912C32.2511 29.7313 32.1182 29.6434 32.0062 29.5327L28.9585 26.5163L25.91 29.5326C25.6839 29.7564 25.3773 29.8821 25.0575 29.8822C24.7377 29.8822 24.431 29.7565 24.2049 29.5327C23.9788 29.309 23.8517 29.0055 23.8517 28.689C23.8516 28.3725 23.9786 28.0689 24.2047 27.8451L27.2534 24.8286L24.2047 21.8121C24.0928 21.7012 24.004 21.5697 23.9434 21.4249C23.8828 21.2801 23.8516 21.1249 23.8517 20.9682C23.8517 20.8115 23.8829 20.6563 23.9435 20.5116C24.0041 20.3668 24.0929 20.2352 24.2049 20.1244C24.3169 20.0136 24.4498 19.9258 24.5961 19.8658C24.7424 19.8058 24.8992 19.775 25.0575 19.775C25.2158 19.775 25.3726 19.8059 25.5189 19.8659C25.6652 19.9259 25.7981 20.0138 25.91 20.1246L28.9585 23.1409L32.0062 20.1245C32.1182 20.0138 32.2511 19.9259 32.3974 19.866C32.5436 19.8061 32.7004 19.7753 32.8587 19.7753C33.017 19.7754 33.1737 19.8063 33.32 19.8662C33.4662 19.9262 33.5991 20.0142 33.711 20.125C33.8229 20.2358 33.9117 20.3673 33.9722 20.5121C34.0327 20.6569 34.0639 20.812 34.0638 20.9687C34.0638 21.1254 34.0326 21.2805 33.972 21.4252C33.9113 21.57 33.8225 21.7015 33.7105 21.8122H33.7108ZM21.1078 20.9641V25.346C21.1105 25.9438 20.9938 26.5362 20.7645 27.0893C20.5352 27.6423 20.1978 28.1451 19.7717 28.5687C19.3456 28.9923 18.8391 29.3285 18.2813 29.5579C17.7235 29.7872 17.1255 29.9053 16.5215 29.9053C15.9175 29.9053 15.3195 29.7872 14.7617 29.5579C14.2039 29.3285 13.6974 28.9923 13.2713 28.5687C12.8452 28.1451 12.5078 27.6423 12.2785 27.0893C12.0492 26.5362 11.9325 25.9438 11.9352 25.346V20.9641C11.9352 20.6477 12.0622 20.3442 12.2883 20.1205C12.5143 19.8968 12.8209 19.7711 13.1406 19.7711C13.4603 19.7711 13.7669 19.8968 13.993 20.1205C14.2191 20.3442 14.3461 20.6477 14.3461 20.9641V25.346C14.3461 25.917 14.5752 26.4645 14.9831 26.8682C15.3911 27.272 15.9443 27.4988 16.5212 27.4988C17.0981 27.4988 17.6513 27.272 18.0592 26.8682C18.4671 26.4645 18.6963 25.917 18.6963 25.346V20.9641C18.6991 20.6494 18.8273 20.3485 19.0531 20.1269C19.2789 19.9053 19.5841 19.781 19.9021 19.781C20.22 19.781 20.5252 19.9053 20.751 20.1269C20.9768 20.3485 21.1051 20.6494 21.1078 20.9641ZM25.6773 7.02159C25.6773 6.86491 25.7085 6.70976 25.7691 6.56501C25.8296 6.42025 25.9184 6.28872 26.0304 6.17793C26.1423 6.06714 26.2752 5.97926 26.4214 5.91931C26.5677 5.85937 26.7245 5.82852 26.8828 5.82855H38.6656C38.9836 5.83126 39.2876 5.95819 39.5115 6.18169C39.7354 6.40519 39.861 6.70718 39.861 7.0219C39.861 7.33663 39.7354 7.63861 39.5115 7.86211C39.2876 8.08562 38.9836 8.21254 38.6656 8.21526H26.8828C26.7244 8.21526 26.5676 8.18438 26.4213 8.12438C26.275 8.06439 26.1421 7.97645 26.0302 7.8656C25.9182 7.75475 25.8295 7.62316 25.7689 7.47834C25.7084 7.33352 25.6773 7.17832 25.6773 7.02159ZM6.12959 7.02159C6.12939 6.86491 6.16041 6.70974 6.22088 6.56494C6.28135 6.42015 6.37007 6.28857 6.48198 6.17776C6.59389 6.06694 6.72678 5.97906 6.87305 5.91914C7.01932 5.85921 7.17609 5.82843 7.33439 5.82855H7.33574C7.57423 5.82862 7.80733 5.89868 8.00558 6.02987C8.20384 6.16106 8.35833 6.34749 8.44953 6.56558C8.54073 6.78367 8.56453 7.02363 8.51794 7.25512C8.47134 7.4866 8.35644 7.69921 8.18775 7.86606C8.01907 8.03291 7.80418 8.14651 7.57027 8.19248C7.33635 8.23846 7.09392 8.21476 6.87361 8.12437C6.65331 8.03398 6.46504 7.88096 6.3326 7.68467C6.20017 7.48838 6.12952 7.25762 6.12959 7.02159ZM11.3489 7.02159C11.3487 6.86492 11.3797 6.70975 11.4402 6.56496C11.5006 6.42017 11.5893 6.2886 11.7012 6.17779C11.8131 6.06698 11.946 5.97909 12.0923 5.91916C12.2385 5.85923 12.3953 5.82844 12.5536 5.82855H12.5556C12.794 5.82872 13.0271 5.89887 13.2253 6.03013C13.4235 6.16138 13.5779 6.34785 13.669 6.56595C13.7601 6.78405 13.7838 7.024 13.7372 7.25544C13.6905 7.48689 13.5756 7.69945 13.4069 7.86625C13.2382 8.03304 13.0233 8.14659 12.7894 8.19252C12.5555 8.23846 12.3131 8.21472 12.0928 8.12432C11.8725 8.03391 11.6843 7.88089 11.5519 7.68461C11.4194 7.48833 11.3488 7.2576 11.3489 7.02159ZM16.5674 7.02159C16.5673 6.70526 16.6942 6.40186 16.9201 6.17812C17.1461 5.95439 17.4526 5.82864 17.7722 5.82855H17.7748C18.0132 5.8289 18.2462 5.8992 18.4442 6.03056C18.6423 6.16192 18.7966 6.34845 18.8875 6.56657C18.9785 6.78468 19.0021 7.0246 18.9554 7.25599C18.9086 7.48738 18.7936 7.69985 18.6248 7.86656C18.4561 8.03327 18.2412 8.14672 18.0073 8.19259C17.7735 8.23845 17.5311 8.21466 17.3109 8.12423C17.0907 8.0338 16.9025 7.88078 16.7701 7.68452C16.6377 7.48826 16.5671 7.25756 16.5672 7.02159H16.5674Z" fill="url(#paint0_linear_2295_307)"/>
<defs>
<linearGradient id="paint0_linear_2295_307" x1="23" y1="0" x2="23" y2="38" gradientUnits="userSpaceOnUse">
<stop stop-color="#5B85FF"/>
<stop offset="1" stop-color="#3F6FFA"/>
</linearGradient>
</defs>
</svg>
