<svg width="64" height="64" viewBox="0 0 64 64" fill="none" xmlns="http://www.w3.org/2000/svg">
<mask id="mask0_2295_796" style="mask-type:luminance" maskUnits="userSpaceOnUse" x="2" y="8" width="60" height="48">
<path d="M54.6663 10.6666H9.33301C7.12387 10.6666 5.33301 12.4575 5.33301 14.6666V49.3333C5.33301 51.5424 7.12387 53.3333 9.33301 53.3333H54.6663C56.8755 53.3333 58.6663 51.5424 58.6663 49.3333V14.6666C58.6663 12.4575 56.8755 10.6666 54.6663 10.6666Z" stroke="white" stroke-width="5.33333" stroke-linejoin="round"/>
<path d="M5.33301 14.6666C5.33301 13.6058 5.75444 12.5883 6.50458 11.8382C7.25473 11.0881 8.27214 10.6666 9.33301 10.6666H54.6663C55.7272 10.6666 56.7446 11.0881 57.4948 11.8382C58.2449 12.5883 58.6663 13.6058 58.6663 14.6666V26.6666H5.33301V14.6666Z" fill="white" stroke="white" stroke-width="5.33333"/>
<path d="M10.6667 18.6666C10.6667 17.1938 11.8606 15.9999 13.3333 15.9999C14.8061 15.9999 16 17.1938 16 18.6666C16 20.1393 14.8061 21.3333 13.3333 21.3333C11.8606 21.3333 10.6667 20.1393 10.6667 18.6666Z" fill="black"/>
<path d="M18.6667 18.6666C18.6667 17.1938 19.8606 15.9999 21.3333 15.9999C22.8061 15.9999 24 17.1938 24 18.6666C24 20.1393 22.8061 21.3333 21.3333 21.3333C19.8606 21.3333 18.6667 20.1393 18.6667 18.6666Z" fill="black"/>
</mask>
<g mask="url(#mask0_2295_796)">
<path d="M0 0H64V64H0V0Z" fill="#1636FF" fill-opacity="0.4"/>
</g>
</svg>
